<mxfile host="Electron" modified="2023-09-14T20:54:41.810Z" agent="Mozilla/5.0 (X11; Linux x86_64) AppleWebKit/537.36 (KHTML, like Gecko) draw.io/21.7.5 Chrome/114.0.5735.289 Electron/25.8.1 Safari/537.36" etag="LhDbV1pgY9gFGmA7_INJ" version="21.7.5" type="device">
  <diagram id="R2lEEEUBdFMjLlhIrx00" name="Page-1">
    <mxGraphModel dx="1653" dy="1058" grid="1" gridSize="10" guides="1" tooltips="1" connect="1" arrows="1" fold="1" page="1" pageScale="1" pageWidth="850" pageHeight="1100" background="none" math="0" shadow="0" extFonts="Permanent Marker^https://fonts.googleapis.com/css?family=Permanent+Marker">
      <root>
        <mxCell id="0" />
        <mxCell id="1" parent="0" />
        <mxCell id="FgxfRrCGkQw39yHPGqpa-3" value="Channel" style="shape=table;startSize=30;container=1;collapsible=1;childLayout=tableLayout;fixedRows=1;rowLines=0;fontStyle=1;align=center;resizeLast=1;rounded=1;labelBackgroundColor=none;fillColor=#F45B69;strokeColor=#028090;fontColor=#E4FDE1;sketch=1;curveFitting=1;jiggle=2;" vertex="1" parent="1">
          <mxGeometry x="620" y="10" width="250" height="370.0000000000002" as="geometry" />
        </mxCell>
        <mxCell id="FgxfRrCGkQw39yHPGqpa-4" value="" style="shape=partialRectangle;collapsible=0;dropTarget=0;pointerEvents=0;fillColor=none;points=[[0,0.5],[1,0.5]];portConstraint=eastwest;top=0;left=0;right=0;bottom=1;rounded=1;labelBackgroundColor=none;strokeColor=#028090;fontColor=#E4FDE1;sketch=1;curveFitting=1;jiggle=2;" vertex="1" parent="FgxfRrCGkQw39yHPGqpa-3">
          <mxGeometry y="30" width="250" height="30" as="geometry" />
        </mxCell>
        <mxCell id="FgxfRrCGkQw39yHPGqpa-5" value="PK" style="shape=partialRectangle;overflow=hidden;connectable=0;fillColor=none;top=0;left=0;bottom=0;right=0;fontStyle=1;rounded=1;labelBackgroundColor=none;strokeColor=#028090;fontColor=#E4FDE1;sketch=1;curveFitting=1;jiggle=2;" vertex="1" parent="FgxfRrCGkQw39yHPGqpa-4">
          <mxGeometry width="30" height="30" as="geometry">
            <mxRectangle width="30" height="30" as="alternateBounds" />
          </mxGeometry>
        </mxCell>
        <mxCell id="FgxfRrCGkQw39yHPGqpa-6" value="id" style="shape=partialRectangle;overflow=hidden;connectable=0;fillColor=none;top=0;left=0;bottom=0;right=0;align=left;spacingLeft=6;fontStyle=5;rounded=1;labelBackgroundColor=none;strokeColor=#028090;fontColor=#E4FDE1;sketch=1;curveFitting=1;jiggle=2;" vertex="1" parent="FgxfRrCGkQw39yHPGqpa-4">
          <mxGeometry x="30" width="220" height="30" as="geometry">
            <mxRectangle width="220" height="30" as="alternateBounds" />
          </mxGeometry>
        </mxCell>
        <mxCell id="FgxfRrCGkQw39yHPGqpa-7" value="" style="shape=partialRectangle;collapsible=0;dropTarget=0;pointerEvents=0;fillColor=none;points=[[0,0.5],[1,0.5]];portConstraint=eastwest;top=0;left=0;right=0;bottom=0;rounded=1;labelBackgroundColor=none;strokeColor=#028090;fontColor=#E4FDE1;sketch=1;curveFitting=1;jiggle=2;" vertex="1" parent="FgxfRrCGkQw39yHPGqpa-3">
          <mxGeometry y="60" width="250" height="30" as="geometry" />
        </mxCell>
        <mxCell id="FgxfRrCGkQw39yHPGqpa-8" value="FK" style="shape=partialRectangle;overflow=hidden;connectable=0;fillColor=none;top=0;left=0;bottom=0;right=0;rounded=1;labelBackgroundColor=none;strokeColor=#028090;fontColor=#E4FDE1;sketch=1;curveFitting=1;jiggle=2;" vertex="1" parent="FgxfRrCGkQw39yHPGqpa-7">
          <mxGeometry width="30" height="30" as="geometry">
            <mxRectangle width="30" height="30" as="alternateBounds" />
          </mxGeometry>
        </mxCell>
        <mxCell id="FgxfRrCGkQw39yHPGqpa-9" value="rss_link" style="shape=partialRectangle;overflow=hidden;connectable=0;fillColor=none;top=0;left=0;bottom=0;right=0;align=left;spacingLeft=6;rounded=1;labelBackgroundColor=none;strokeColor=#028090;fontColor=#E4FDE1;sketch=1;curveFitting=1;jiggle=2;" vertex="1" parent="FgxfRrCGkQw39yHPGqpa-7">
          <mxGeometry x="30" width="220" height="30" as="geometry">
            <mxRectangle width="220" height="30" as="alternateBounds" />
          </mxGeometry>
        </mxCell>
        <mxCell id="FgxfRrCGkQw39yHPGqpa-231" style="shape=partialRectangle;collapsible=0;dropTarget=0;pointerEvents=0;fillColor=none;points=[[0,0.5],[1,0.5]];portConstraint=eastwest;top=0;left=0;right=0;bottom=0;rounded=1;labelBackgroundColor=none;strokeColor=#028090;fontColor=#E4FDE1;sketch=1;curveFitting=1;jiggle=2;" vertex="1" parent="FgxfRrCGkQw39yHPGqpa-3">
          <mxGeometry y="90" width="250" height="30" as="geometry" />
        </mxCell>
        <mxCell id="FgxfRrCGkQw39yHPGqpa-232" style="shape=partialRectangle;overflow=hidden;connectable=0;fillColor=none;top=0;left=0;bottom=0;right=0;rounded=1;labelBackgroundColor=none;strokeColor=#028090;fontColor=#E4FDE1;sketch=1;curveFitting=1;jiggle=2;" vertex="1" parent="FgxfRrCGkQw39yHPGqpa-231">
          <mxGeometry width="30" height="30" as="geometry">
            <mxRectangle width="30" height="30" as="alternateBounds" />
          </mxGeometry>
        </mxCell>
        <mxCell id="FgxfRrCGkQw39yHPGqpa-233" value="type" style="shape=partialRectangle;overflow=hidden;connectable=0;fillColor=none;top=0;left=0;bottom=0;right=0;align=left;spacingLeft=6;rounded=1;labelBackgroundColor=none;strokeColor=#028090;fontColor=#E4FDE1;sketch=1;curveFitting=1;jiggle=2;" vertex="1" parent="FgxfRrCGkQw39yHPGqpa-231">
          <mxGeometry x="30" width="220" height="30" as="geometry">
            <mxRectangle width="220" height="30" as="alternateBounds" />
          </mxGeometry>
        </mxCell>
        <mxCell id="FgxfRrCGkQw39yHPGqpa-10" value="" style="shape=partialRectangle;collapsible=0;dropTarget=0;pointerEvents=0;fillColor=none;points=[[0,0.5],[1,0.5]];portConstraint=eastwest;top=0;left=0;right=0;bottom=0;rounded=1;labelBackgroundColor=none;strokeColor=#028090;fontColor=#E4FDE1;sketch=1;curveFitting=1;jiggle=2;" vertex="1" parent="FgxfRrCGkQw39yHPGqpa-3">
          <mxGeometry y="120" width="250" height="30" as="geometry" />
        </mxCell>
        <mxCell id="FgxfRrCGkQw39yHPGqpa-11" value="" style="shape=partialRectangle;overflow=hidden;connectable=0;fillColor=none;top=0;left=0;bottom=0;right=0;rounded=1;labelBackgroundColor=none;strokeColor=#028090;fontColor=#E4FDE1;sketch=1;curveFitting=1;jiggle=2;" vertex="1" parent="FgxfRrCGkQw39yHPGqpa-10">
          <mxGeometry width="30" height="30" as="geometry">
            <mxRectangle width="30" height="30" as="alternateBounds" />
          </mxGeometry>
        </mxCell>
        <mxCell id="FgxfRrCGkQw39yHPGqpa-12" value="title" style="shape=partialRectangle;overflow=hidden;connectable=0;fillColor=none;top=0;left=0;bottom=0;right=0;align=left;spacingLeft=6;rounded=1;labelBackgroundColor=none;strokeColor=#028090;fontColor=#E4FDE1;sketch=1;curveFitting=1;jiggle=2;" vertex="1" parent="FgxfRrCGkQw39yHPGqpa-10">
          <mxGeometry x="30" width="220" height="30" as="geometry">
            <mxRectangle width="220" height="30" as="alternateBounds" />
          </mxGeometry>
        </mxCell>
        <mxCell id="FgxfRrCGkQw39yHPGqpa-13" style="shape=partialRectangle;collapsible=0;dropTarget=0;pointerEvents=0;fillColor=none;points=[[0,0.5],[1,0.5]];portConstraint=eastwest;top=0;left=0;right=0;bottom=0;rounded=1;labelBackgroundColor=none;strokeColor=#028090;fontColor=#E4FDE1;sketch=1;curveFitting=1;jiggle=2;" vertex="1" parent="FgxfRrCGkQw39yHPGqpa-3">
          <mxGeometry y="150" width="250" height="30" as="geometry" />
        </mxCell>
        <mxCell id="FgxfRrCGkQw39yHPGqpa-14" style="shape=partialRectangle;overflow=hidden;connectable=0;fillColor=none;top=0;left=0;bottom=0;right=0;rounded=1;labelBackgroundColor=none;strokeColor=#028090;fontColor=#E4FDE1;sketch=1;curveFitting=1;jiggle=2;" vertex="1" parent="FgxfRrCGkQw39yHPGqpa-13">
          <mxGeometry width="30" height="30" as="geometry">
            <mxRectangle width="30" height="30" as="alternateBounds" />
          </mxGeometry>
        </mxCell>
        <mxCell id="FgxfRrCGkQw39yHPGqpa-15" value="description  &#xa;" style="shape=partialRectangle;overflow=hidden;connectable=0;fillColor=none;top=0;left=0;bottom=0;right=0;align=left;spacingLeft=6;rounded=1;labelBackgroundColor=none;strokeColor=#028090;fontColor=#E4FDE1;sketch=1;curveFitting=1;jiggle=2;" vertex="1" parent="FgxfRrCGkQw39yHPGqpa-13">
          <mxGeometry x="30" width="220" height="30" as="geometry">
            <mxRectangle width="220" height="30" as="alternateBounds" />
          </mxGeometry>
        </mxCell>
        <mxCell id="FgxfRrCGkQw39yHPGqpa-16" style="shape=partialRectangle;collapsible=0;dropTarget=0;pointerEvents=0;fillColor=none;points=[[0,0.5],[1,0.5]];portConstraint=eastwest;top=0;left=0;right=0;bottom=0;rounded=1;labelBackgroundColor=none;strokeColor=#028090;fontColor=#E4FDE1;sketch=1;curveFitting=1;jiggle=2;" vertex="1" parent="FgxfRrCGkQw39yHPGqpa-3">
          <mxGeometry y="180" width="250" height="30" as="geometry" />
        </mxCell>
        <mxCell id="FgxfRrCGkQw39yHPGqpa-17" style="shape=partialRectangle;overflow=hidden;connectable=0;fillColor=none;top=0;left=0;bottom=0;right=0;rounded=1;labelBackgroundColor=none;strokeColor=#028090;fontColor=#E4FDE1;sketch=1;curveFitting=1;jiggle=2;" vertex="1" parent="FgxfRrCGkQw39yHPGqpa-16">
          <mxGeometry width="30" height="30" as="geometry">
            <mxRectangle width="30" height="30" as="alternateBounds" />
          </mxGeometry>
        </mxCell>
        <mxCell id="FgxfRrCGkQw39yHPGqpa-18" value="last_update" style="shape=partialRectangle;overflow=hidden;connectable=0;fillColor=none;top=0;left=0;bottom=0;right=0;align=left;spacingLeft=6;rounded=1;labelBackgroundColor=none;strokeColor=#028090;fontColor=#E4FDE1;sketch=1;curveFitting=1;jiggle=2;" vertex="1" parent="FgxfRrCGkQw39yHPGqpa-16">
          <mxGeometry x="30" width="220" height="30" as="geometry">
            <mxRectangle width="220" height="30" as="alternateBounds" />
          </mxGeometry>
        </mxCell>
        <mxCell id="FgxfRrCGkQw39yHPGqpa-19" style="shape=partialRectangle;collapsible=0;dropTarget=0;pointerEvents=0;fillColor=none;points=[[0,0.5],[1,0.5]];portConstraint=eastwest;top=0;left=0;right=0;bottom=0;rounded=1;labelBackgroundColor=none;strokeColor=#028090;fontColor=#E4FDE1;sketch=1;curveFitting=1;jiggle=2;" vertex="1" parent="FgxfRrCGkQw39yHPGqpa-3">
          <mxGeometry y="210" width="250" height="30" as="geometry" />
        </mxCell>
        <mxCell id="FgxfRrCGkQw39yHPGqpa-20" style="shape=partialRectangle;overflow=hidden;connectable=0;fillColor=none;top=0;left=0;bottom=0;right=0;rounded=1;labelBackgroundColor=none;strokeColor=#028090;fontColor=#E4FDE1;sketch=1;curveFitting=1;jiggle=2;" vertex="1" parent="FgxfRrCGkQw39yHPGqpa-19">
          <mxGeometry width="30" height="30" as="geometry">
            <mxRectangle width="30" height="30" as="alternateBounds" />
          </mxGeometry>
        </mxCell>
        <mxCell id="FgxfRrCGkQw39yHPGqpa-21" value="language" style="shape=partialRectangle;overflow=hidden;connectable=0;fillColor=none;top=0;left=0;bottom=0;right=0;align=left;spacingLeft=6;rounded=1;labelBackgroundColor=none;strokeColor=#028090;fontColor=#E4FDE1;sketch=1;curveFitting=1;jiggle=2;" vertex="1" parent="FgxfRrCGkQw39yHPGqpa-19">
          <mxGeometry x="30" width="220" height="30" as="geometry">
            <mxRectangle width="220" height="30" as="alternateBounds" />
          </mxGeometry>
        </mxCell>
        <mxCell id="FgxfRrCGkQw39yHPGqpa-22" style="shape=partialRectangle;collapsible=0;dropTarget=0;pointerEvents=0;fillColor=none;points=[[0,0.5],[1,0.5]];portConstraint=eastwest;top=0;left=0;right=0;bottom=0;rounded=1;labelBackgroundColor=none;strokeColor=#028090;fontColor=#E4FDE1;sketch=1;curveFitting=1;jiggle=2;" vertex="1" parent="FgxfRrCGkQw39yHPGqpa-3">
          <mxGeometry y="240" width="250" height="30" as="geometry" />
        </mxCell>
        <mxCell id="FgxfRrCGkQw39yHPGqpa-23" style="shape=partialRectangle;overflow=hidden;connectable=0;fillColor=none;top=0;left=0;bottom=0;right=0;rounded=1;labelBackgroundColor=none;strokeColor=#028090;fontColor=#E4FDE1;sketch=1;curveFitting=1;jiggle=2;" vertex="1" parent="FgxfRrCGkQw39yHPGqpa-22">
          <mxGeometry width="30" height="30" as="geometry">
            <mxRectangle width="30" height="30" as="alternateBounds" />
          </mxGeometry>
        </mxCell>
        <mxCell id="FgxfRrCGkQw39yHPGqpa-24" value="subtitle" style="shape=partialRectangle;overflow=hidden;connectable=0;fillColor=none;top=0;left=0;bottom=0;right=0;align=left;spacingLeft=6;rounded=1;labelBackgroundColor=none;strokeColor=#028090;fontColor=#E4FDE1;sketch=1;curveFitting=1;jiggle=2;" vertex="1" parent="FgxfRrCGkQw39yHPGqpa-22">
          <mxGeometry x="30" width="220" height="30" as="geometry">
            <mxRectangle width="220" height="30" as="alternateBounds" />
          </mxGeometry>
        </mxCell>
        <mxCell id="FgxfRrCGkQw39yHPGqpa-25" style="shape=partialRectangle;collapsible=0;dropTarget=0;pointerEvents=0;fillColor=none;points=[[0,0.5],[1,0.5]];portConstraint=eastwest;top=0;left=0;right=0;bottom=0;rounded=1;labelBackgroundColor=none;strokeColor=#028090;fontColor=#E4FDE1;sketch=1;curveFitting=1;jiggle=2;" vertex="1" parent="FgxfRrCGkQw39yHPGqpa-3">
          <mxGeometry y="270" width="250" height="30" as="geometry" />
        </mxCell>
        <mxCell id="FgxfRrCGkQw39yHPGqpa-26" style="shape=partialRectangle;overflow=hidden;connectable=0;fillColor=none;top=0;left=0;bottom=0;right=0;rounded=1;labelBackgroundColor=none;strokeColor=#028090;fontColor=#E4FDE1;sketch=1;curveFitting=1;jiggle=2;" vertex="1" parent="FgxfRrCGkQw39yHPGqpa-25">
          <mxGeometry width="30" height="30" as="geometry">
            <mxRectangle width="30" height="30" as="alternateBounds" />
          </mxGeometry>
        </mxCell>
        <mxCell id="FgxfRrCGkQw39yHPGqpa-27" value="image" style="shape=partialRectangle;overflow=hidden;connectable=0;fillColor=none;top=0;left=0;bottom=0;right=0;align=left;spacingLeft=6;rounded=1;labelBackgroundColor=none;strokeColor=#028090;fontColor=#E4FDE1;sketch=1;curveFitting=1;jiggle=2;" vertex="1" parent="FgxfRrCGkQw39yHPGqpa-25">
          <mxGeometry x="30" width="220" height="30" as="geometry">
            <mxRectangle width="220" height="30" as="alternateBounds" />
          </mxGeometry>
        </mxCell>
        <mxCell id="FgxfRrCGkQw39yHPGqpa-31" style="shape=partialRectangle;collapsible=0;dropTarget=0;pointerEvents=0;fillColor=none;points=[[0,0.5],[1,0.5]];portConstraint=eastwest;top=0;left=0;right=0;bottom=0;rounded=1;labelBackgroundColor=none;strokeColor=#028090;fontColor=#E4FDE1;sketch=1;curveFitting=1;jiggle=2;" vertex="1" parent="FgxfRrCGkQw39yHPGqpa-3">
          <mxGeometry y="300" width="250" height="30" as="geometry" />
        </mxCell>
        <mxCell id="FgxfRrCGkQw39yHPGqpa-32" value="FK" style="shape=partialRectangle;overflow=hidden;connectable=0;fillColor=none;top=0;left=0;bottom=0;right=0;rounded=1;labelBackgroundColor=none;strokeColor=#028090;fontColor=#E4FDE1;sketch=1;curveFitting=1;jiggle=2;" vertex="1" parent="FgxfRrCGkQw39yHPGqpa-31">
          <mxGeometry width="30" height="30" as="geometry">
            <mxRectangle width="30" height="30" as="alternateBounds" />
          </mxGeometry>
        </mxCell>
        <mxCell id="FgxfRrCGkQw39yHPGqpa-33" value="category" style="shape=partialRectangle;overflow=hidden;connectable=0;fillColor=none;top=0;left=0;bottom=0;right=0;align=left;spacingLeft=6;rounded=1;labelBackgroundColor=none;strokeColor=#028090;fontColor=#E4FDE1;sketch=1;curveFitting=1;jiggle=2;" vertex="1" parent="FgxfRrCGkQw39yHPGqpa-31">
          <mxGeometry x="30" width="220" height="30" as="geometry">
            <mxRectangle width="220" height="30" as="alternateBounds" />
          </mxGeometry>
        </mxCell>
        <mxCell id="FgxfRrCGkQw39yHPGqpa-34" style="shape=partialRectangle;collapsible=0;dropTarget=0;pointerEvents=0;fillColor=none;points=[[0,0.5],[1,0.5]];portConstraint=eastwest;top=0;left=0;right=0;bottom=0;rounded=1;labelBackgroundColor=none;strokeColor=#028090;fontColor=#E4FDE1;sketch=1;curveFitting=1;jiggle=2;" vertex="1" parent="FgxfRrCGkQw39yHPGqpa-3">
          <mxGeometry y="330" width="250" height="30" as="geometry" />
        </mxCell>
        <mxCell id="FgxfRrCGkQw39yHPGqpa-35" style="shape=partialRectangle;overflow=hidden;connectable=0;fillColor=none;top=0;left=0;bottom=0;right=0;rounded=1;labelBackgroundColor=none;strokeColor=#028090;fontColor=#E4FDE1;sketch=1;curveFitting=1;jiggle=2;" vertex="1" parent="FgxfRrCGkQw39yHPGqpa-34">
          <mxGeometry width="30" height="30" as="geometry">
            <mxRectangle width="30" height="30" as="alternateBounds" />
          </mxGeometry>
        </mxCell>
        <mxCell id="FgxfRrCGkQw39yHPGqpa-36" value="owner" style="shape=partialRectangle;overflow=hidden;connectable=0;fillColor=none;top=0;left=0;bottom=0;right=0;align=left;spacingLeft=6;rounded=1;labelBackgroundColor=none;strokeColor=#028090;fontColor=#E4FDE1;sketch=1;curveFitting=1;jiggle=2;" vertex="1" parent="FgxfRrCGkQw39yHPGqpa-34">
          <mxGeometry x="30" width="220" height="30" as="geometry">
            <mxRectangle width="220" height="30" as="alternateBounds" />
          </mxGeometry>
        </mxCell>
        <mxCell id="FgxfRrCGkQw39yHPGqpa-38" value="Podcast" style="shape=table;startSize=30;container=1;collapsible=1;childLayout=tableLayout;fixedRows=1;rowLines=0;fontStyle=1;align=center;resizeLast=1;rounded=1;labelBackgroundColor=none;fillColor=#F45B69;strokeColor=#028090;fontColor=#E4FDE1;sketch=1;curveFitting=1;jiggle=2;" vertex="1" parent="1">
          <mxGeometry x="240" y="428.9" width="250" height="220" as="geometry" />
        </mxCell>
        <mxCell id="FgxfRrCGkQw39yHPGqpa-39" value="" style="shape=partialRectangle;collapsible=0;dropTarget=0;pointerEvents=0;fillColor=none;points=[[0,0.5],[1,0.5]];portConstraint=eastwest;top=0;left=0;right=0;bottom=1;rounded=1;labelBackgroundColor=none;strokeColor=#028090;fontColor=#E4FDE1;sketch=1;curveFitting=1;jiggle=2;" vertex="1" parent="FgxfRrCGkQw39yHPGqpa-38">
          <mxGeometry y="30" width="250" height="30" as="geometry" />
        </mxCell>
        <mxCell id="FgxfRrCGkQw39yHPGqpa-40" value="PK" style="shape=partialRectangle;overflow=hidden;connectable=0;fillColor=none;top=0;left=0;bottom=0;right=0;fontStyle=1;rounded=1;labelBackgroundColor=none;strokeColor=#028090;fontColor=#E4FDE1;sketch=1;curveFitting=1;jiggle=2;" vertex="1" parent="FgxfRrCGkQw39yHPGqpa-39">
          <mxGeometry width="30" height="30" as="geometry">
            <mxRectangle width="30" height="30" as="alternateBounds" />
          </mxGeometry>
        </mxCell>
        <mxCell id="FgxfRrCGkQw39yHPGqpa-41" value="id" style="shape=partialRectangle;overflow=hidden;connectable=0;fillColor=none;top=0;left=0;bottom=0;right=0;align=left;spacingLeft=6;fontStyle=5;rounded=1;labelBackgroundColor=none;strokeColor=#028090;fontColor=#E4FDE1;sketch=1;curveFitting=1;jiggle=2;" vertex="1" parent="FgxfRrCGkQw39yHPGqpa-39">
          <mxGeometry x="30" width="220" height="30" as="geometry">
            <mxRectangle width="220" height="30" as="alternateBounds" />
          </mxGeometry>
        </mxCell>
        <mxCell id="FgxfRrCGkQw39yHPGqpa-42" style="shape=partialRectangle;collapsible=0;dropTarget=0;pointerEvents=0;fillColor=none;points=[[0,0.5],[1,0.5]];portConstraint=eastwest;top=0;left=0;right=0;bottom=0;rounded=1;labelBackgroundColor=none;strokeColor=#028090;fontColor=#E4FDE1;sketch=1;curveFitting=1;jiggle=2;" vertex="1" parent="FgxfRrCGkQw39yHPGqpa-38">
          <mxGeometry y="60" width="250" height="30" as="geometry" />
        </mxCell>
        <mxCell id="FgxfRrCGkQw39yHPGqpa-43" style="shape=partialRectangle;overflow=hidden;connectable=0;fillColor=none;top=0;left=0;bottom=0;right=0;rounded=1;labelBackgroundColor=none;strokeColor=#028090;fontColor=#E4FDE1;sketch=1;curveFitting=1;jiggle=2;" vertex="1" parent="FgxfRrCGkQw39yHPGqpa-42">
          <mxGeometry width="30" height="30" as="geometry">
            <mxRectangle width="30" height="30" as="alternateBounds" />
          </mxGeometry>
        </mxCell>
        <mxCell id="FgxfRrCGkQw39yHPGqpa-44" value="subtitle" style="shape=partialRectangle;overflow=hidden;connectable=0;fillColor=none;top=0;left=0;bottom=0;right=0;align=left;spacingLeft=6;rounded=1;labelBackgroundColor=none;strokeColor=#028090;fontColor=#E4FDE1;sketch=1;curveFitting=1;jiggle=2;" vertex="1" parent="FgxfRrCGkQw39yHPGqpa-42">
          <mxGeometry x="30" width="220" height="30" as="geometry">
            <mxRectangle width="220" height="30" as="alternateBounds" />
          </mxGeometry>
        </mxCell>
        <mxCell id="FgxfRrCGkQw39yHPGqpa-45" style="shape=partialRectangle;collapsible=0;dropTarget=0;pointerEvents=0;fillColor=none;points=[[0,0.5],[1,0.5]];portConstraint=eastwest;top=0;left=0;right=0;bottom=0;rounded=1;labelBackgroundColor=none;strokeColor=#028090;fontColor=#E4FDE1;sketch=1;curveFitting=1;jiggle=2;" vertex="1" parent="FgxfRrCGkQw39yHPGqpa-38">
          <mxGeometry y="90" width="250" height="30" as="geometry" />
        </mxCell>
        <mxCell id="FgxfRrCGkQw39yHPGqpa-46" style="shape=partialRectangle;overflow=hidden;connectable=0;fillColor=none;top=0;left=0;bottom=0;right=0;rounded=1;labelBackgroundColor=none;strokeColor=#028090;fontColor=#E4FDE1;sketch=1;curveFitting=1;jiggle=2;" vertex="1" parent="FgxfRrCGkQw39yHPGqpa-45">
          <mxGeometry width="30" height="30" as="geometry">
            <mxRectangle width="30" height="30" as="alternateBounds" />
          </mxGeometry>
        </mxCell>
        <mxCell id="FgxfRrCGkQw39yHPGqpa-47" value="description" style="shape=partialRectangle;overflow=hidden;connectable=0;fillColor=none;top=0;left=0;bottom=0;right=0;align=left;spacingLeft=6;rounded=1;labelBackgroundColor=none;strokeColor=#028090;fontColor=#E4FDE1;sketch=1;curveFitting=1;jiggle=2;" vertex="1" parent="FgxfRrCGkQw39yHPGqpa-45">
          <mxGeometry x="30" width="220" height="30" as="geometry">
            <mxRectangle width="220" height="30" as="alternateBounds" />
          </mxGeometry>
        </mxCell>
        <mxCell id="FgxfRrCGkQw39yHPGqpa-48" style="shape=partialRectangle;collapsible=0;dropTarget=0;pointerEvents=0;fillColor=none;points=[[0,0.5],[1,0.5]];portConstraint=eastwest;top=0;left=0;right=0;bottom=0;rounded=1;labelBackgroundColor=none;strokeColor=#028090;fontColor=#E4FDE1;sketch=1;curveFitting=1;jiggle=2;" vertex="1" parent="FgxfRrCGkQw39yHPGqpa-38">
          <mxGeometry y="120" width="250" height="30" as="geometry" />
        </mxCell>
        <mxCell id="FgxfRrCGkQw39yHPGqpa-49" style="shape=partialRectangle;overflow=hidden;connectable=0;fillColor=none;top=0;left=0;bottom=0;right=0;rounded=1;labelBackgroundColor=none;strokeColor=#028090;fontColor=#E4FDE1;sketch=1;curveFitting=1;jiggle=2;" vertex="1" parent="FgxfRrCGkQw39yHPGqpa-48">
          <mxGeometry width="30" height="30" as="geometry">
            <mxRectangle width="30" height="30" as="alternateBounds" />
          </mxGeometry>
        </mxCell>
        <mxCell id="FgxfRrCGkQw39yHPGqpa-50" value="duration" style="shape=partialRectangle;overflow=hidden;connectable=0;fillColor=none;top=0;left=0;bottom=0;right=0;align=left;spacingLeft=6;rounded=1;labelBackgroundColor=none;strokeColor=#028090;fontColor=#E4FDE1;sketch=1;curveFitting=1;jiggle=2;" vertex="1" parent="FgxfRrCGkQw39yHPGqpa-48">
          <mxGeometry x="30" width="220" height="30" as="geometry">
            <mxRectangle width="220" height="30" as="alternateBounds" />
          </mxGeometry>
        </mxCell>
        <mxCell id="FgxfRrCGkQw39yHPGqpa-51" style="shape=partialRectangle;collapsible=0;dropTarget=0;pointerEvents=0;fillColor=none;points=[[0,0.5],[1,0.5]];portConstraint=eastwest;top=0;left=0;right=0;bottom=0;rounded=1;labelBackgroundColor=none;strokeColor=#028090;fontColor=#E4FDE1;sketch=1;curveFitting=1;jiggle=2;" vertex="1" parent="FgxfRrCGkQw39yHPGqpa-38">
          <mxGeometry y="150" width="250" height="30" as="geometry" />
        </mxCell>
        <mxCell id="FgxfRrCGkQw39yHPGqpa-52" style="shape=partialRectangle;overflow=hidden;connectable=0;fillColor=none;top=0;left=0;bottom=0;right=0;rounded=1;labelBackgroundColor=none;strokeColor=#028090;fontColor=#E4FDE1;sketch=1;curveFitting=1;jiggle=2;" vertex="1" parent="FgxfRrCGkQw39yHPGqpa-51">
          <mxGeometry width="30" height="30" as="geometry">
            <mxRectangle width="30" height="30" as="alternateBounds" />
          </mxGeometry>
        </mxCell>
        <mxCell id="FgxfRrCGkQw39yHPGqpa-53" value="audio_file" style="shape=partialRectangle;overflow=hidden;connectable=0;fillColor=none;top=0;left=0;bottom=0;right=0;align=left;spacingLeft=6;rounded=1;labelBackgroundColor=none;strokeColor=#028090;fontColor=#E4FDE1;sketch=1;curveFitting=1;jiggle=2;" vertex="1" parent="FgxfRrCGkQw39yHPGqpa-51">
          <mxGeometry x="30" width="220" height="30" as="geometry">
            <mxRectangle width="220" height="30" as="alternateBounds" />
          </mxGeometry>
        </mxCell>
        <mxCell id="FgxfRrCGkQw39yHPGqpa-54" style="shape=partialRectangle;collapsible=0;dropTarget=0;pointerEvents=0;fillColor=none;points=[[0,0.5],[1,0.5]];portConstraint=eastwest;top=0;left=0;right=0;bottom=0;rounded=1;labelBackgroundColor=none;strokeColor=#028090;fontColor=#E4FDE1;sketch=1;curveFitting=1;jiggle=2;" vertex="1" parent="FgxfRrCGkQw39yHPGqpa-38">
          <mxGeometry y="180" width="250" height="30" as="geometry" />
        </mxCell>
        <mxCell id="FgxfRrCGkQw39yHPGqpa-55" style="shape=partialRectangle;overflow=hidden;connectable=0;fillColor=none;top=0;left=0;bottom=0;right=0;rounded=1;labelBackgroundColor=none;strokeColor=#028090;fontColor=#E4FDE1;sketch=1;curveFitting=1;jiggle=2;" vertex="1" parent="FgxfRrCGkQw39yHPGqpa-54">
          <mxGeometry width="30" height="30" as="geometry">
            <mxRectangle width="30" height="30" as="alternateBounds" />
          </mxGeometry>
        </mxCell>
        <mxCell id="FgxfRrCGkQw39yHPGqpa-56" value="explicit" style="shape=partialRectangle;overflow=hidden;connectable=0;fillColor=none;top=0;left=0;bottom=0;right=0;align=left;spacingLeft=6;rounded=1;labelBackgroundColor=none;strokeColor=#028090;fontColor=#E4FDE1;sketch=1;curveFitting=1;jiggle=2;" vertex="1" parent="FgxfRrCGkQw39yHPGqpa-54">
          <mxGeometry x="30" width="220" height="30" as="geometry">
            <mxRectangle width="220" height="30" as="alternateBounds" />
          </mxGeometry>
        </mxCell>
        <mxCell id="FgxfRrCGkQw39yHPGqpa-78" value="Category" style="shape=table;startSize=30;container=1;collapsible=1;childLayout=tableLayout;fixedRows=1;rowLines=0;fontStyle=1;align=center;resizeLast=1;rounded=1;labelBackgroundColor=none;fillColor=#F45B69;strokeColor=#028090;fontColor=#E4FDE1;sketch=1;curveFitting=1;jiggle=2;" vertex="1" parent="1">
          <mxGeometry x="240" y="40" width="250" height="130" as="geometry" />
        </mxCell>
        <mxCell id="FgxfRrCGkQw39yHPGqpa-79" value="" style="shape=partialRectangle;collapsible=0;dropTarget=0;pointerEvents=0;fillColor=none;points=[[0,0.5],[1,0.5]];portConstraint=eastwest;top=0;left=0;right=0;bottom=1;rounded=1;labelBackgroundColor=none;strokeColor=#028090;fontColor=#E4FDE1;sketch=1;curveFitting=1;jiggle=2;" vertex="1" parent="FgxfRrCGkQw39yHPGqpa-78">
          <mxGeometry y="30" width="250" height="30" as="geometry" />
        </mxCell>
        <mxCell id="FgxfRrCGkQw39yHPGqpa-80" value="PK" style="shape=partialRectangle;overflow=hidden;connectable=0;fillColor=none;top=0;left=0;bottom=0;right=0;fontStyle=1;rounded=1;labelBackgroundColor=none;strokeColor=#028090;fontColor=#E4FDE1;sketch=1;curveFitting=1;jiggle=2;" vertex="1" parent="FgxfRrCGkQw39yHPGqpa-79">
          <mxGeometry width="30" height="30" as="geometry">
            <mxRectangle width="30" height="30" as="alternateBounds" />
          </mxGeometry>
        </mxCell>
        <mxCell id="FgxfRrCGkQw39yHPGqpa-81" value="id" style="shape=partialRectangle;overflow=hidden;connectable=0;fillColor=none;top=0;left=0;bottom=0;right=0;align=left;spacingLeft=6;fontStyle=5;rounded=1;labelBackgroundColor=none;strokeColor=#028090;fontColor=#E4FDE1;sketch=1;curveFitting=1;jiggle=2;" vertex="1" parent="FgxfRrCGkQw39yHPGqpa-79">
          <mxGeometry x="30" width="220" height="30" as="geometry">
            <mxRectangle width="220" height="30" as="alternateBounds" />
          </mxGeometry>
        </mxCell>
        <mxCell id="FgxfRrCGkQw39yHPGqpa-82" value="" style="shape=partialRectangle;collapsible=0;dropTarget=0;pointerEvents=0;fillColor=none;points=[[0,0.5],[1,0.5]];portConstraint=eastwest;top=0;left=0;right=0;bottom=0;rounded=1;labelBackgroundColor=none;strokeColor=#028090;fontColor=#E4FDE1;sketch=1;curveFitting=1;jiggle=2;" vertex="1" parent="FgxfRrCGkQw39yHPGqpa-78">
          <mxGeometry y="60" width="250" height="30" as="geometry" />
        </mxCell>
        <mxCell id="FgxfRrCGkQw39yHPGqpa-83" value="" style="shape=partialRectangle;overflow=hidden;connectable=0;fillColor=none;top=0;left=0;bottom=0;right=0;rounded=1;labelBackgroundColor=none;strokeColor=#028090;fontColor=#E4FDE1;sketch=1;curveFitting=1;jiggle=2;" vertex="1" parent="FgxfRrCGkQw39yHPGqpa-82">
          <mxGeometry width="30" height="30" as="geometry">
            <mxRectangle width="30" height="30" as="alternateBounds" />
          </mxGeometry>
        </mxCell>
        <mxCell id="FgxfRrCGkQw39yHPGqpa-84" value="name" style="shape=partialRectangle;overflow=hidden;connectable=0;fillColor=none;top=0;left=0;bottom=0;right=0;align=left;spacingLeft=6;rounded=1;labelBackgroundColor=none;strokeColor=#028090;fontColor=#E4FDE1;sketch=1;curveFitting=1;jiggle=2;" vertex="1" parent="FgxfRrCGkQw39yHPGqpa-82">
          <mxGeometry x="30" width="220" height="30" as="geometry">
            <mxRectangle width="220" height="30" as="alternateBounds" />
          </mxGeometry>
        </mxCell>
        <mxCell id="FgxfRrCGkQw39yHPGqpa-85" style="shape=partialRectangle;collapsible=0;dropTarget=0;pointerEvents=0;fillColor=none;points=[[0,0.5],[1,0.5]];portConstraint=eastwest;top=0;left=0;right=0;bottom=0;rounded=1;labelBackgroundColor=none;strokeColor=#028090;fontColor=#E4FDE1;sketch=1;curveFitting=1;jiggle=2;" vertex="1" parent="FgxfRrCGkQw39yHPGqpa-78">
          <mxGeometry y="90" width="250" height="30" as="geometry" />
        </mxCell>
        <mxCell id="FgxfRrCGkQw39yHPGqpa-86" style="shape=partialRectangle;overflow=hidden;connectable=0;fillColor=none;top=0;left=0;bottom=0;right=0;rounded=1;labelBackgroundColor=none;strokeColor=#028090;fontColor=#E4FDE1;sketch=1;curveFitting=1;jiggle=2;" vertex="1" parent="FgxfRrCGkQw39yHPGqpa-85">
          <mxGeometry width="30" height="30" as="geometry">
            <mxRectangle width="30" height="30" as="alternateBounds" />
          </mxGeometry>
        </mxCell>
        <mxCell id="FgxfRrCGkQw39yHPGqpa-87" value="parent" style="shape=partialRectangle;overflow=hidden;connectable=0;fillColor=none;top=0;left=0;bottom=0;right=0;align=left;spacingLeft=6;rounded=1;labelBackgroundColor=none;strokeColor=#028090;fontColor=#E4FDE1;sketch=1;curveFitting=1;jiggle=2;" vertex="1" parent="FgxfRrCGkQw39yHPGqpa-85">
          <mxGeometry x="30" width="220" height="30" as="geometry">
            <mxRectangle width="220" height="30" as="alternateBounds" />
          </mxGeometry>
        </mxCell>
        <mxCell id="FgxfRrCGkQw39yHPGqpa-88" style="edgeStyle=orthogonalEdgeStyle;rounded=1;orthogonalLoop=1;jettySize=auto;html=1;exitX=1;exitY=0.5;exitDx=0;exitDy=0;entryX=0;entryY=0.5;entryDx=0;entryDy=0;endArrow=ERoneToMany;endFill=0;startArrow=ERone;startFill=0;labelBackgroundColor=none;fontColor=default;strokeColor=#028090;sketch=1;curveFitting=1;jiggle=2;" edge="1" parent="1" source="FgxfRrCGkQw39yHPGqpa-79" target="FgxfRrCGkQw39yHPGqpa-31">
          <mxGeometry relative="1" as="geometry" />
        </mxCell>
        <mxCell id="FgxfRrCGkQw39yHPGqpa-89" value="Subcription" style="shape=table;startSize=30;container=1;collapsible=1;childLayout=tableLayout;fixedRows=1;rowLines=0;fontStyle=1;align=center;resizeLast=1;rounded=1;labelBackgroundColor=none;fillColor=#F45B69;strokeColor=#028090;fontColor=#E4FDE1;sketch=1;curveFitting=1;jiggle=2;" vertex="1" parent="1">
          <mxGeometry x="1130" y="100" width="250" height="160" as="geometry" />
        </mxCell>
        <mxCell id="FgxfRrCGkQw39yHPGqpa-90" value="" style="shape=partialRectangle;collapsible=0;dropTarget=0;pointerEvents=0;fillColor=none;points=[[0,0.5],[1,0.5]];portConstraint=eastwest;top=0;left=0;right=0;bottom=1;rounded=1;labelBackgroundColor=none;strokeColor=#028090;fontColor=#E4FDE1;sketch=1;curveFitting=1;jiggle=2;" vertex="1" parent="FgxfRrCGkQw39yHPGqpa-89">
          <mxGeometry y="30" width="250" height="30" as="geometry" />
        </mxCell>
        <mxCell id="FgxfRrCGkQw39yHPGqpa-91" value="PK" style="shape=partialRectangle;overflow=hidden;connectable=0;fillColor=none;top=0;left=0;bottom=0;right=0;fontStyle=1;rounded=1;labelBackgroundColor=none;strokeColor=#028090;fontColor=#E4FDE1;sketch=1;curveFitting=1;jiggle=2;" vertex="1" parent="FgxfRrCGkQw39yHPGqpa-90">
          <mxGeometry width="30" height="30" as="geometry">
            <mxRectangle width="30" height="30" as="alternateBounds" />
          </mxGeometry>
        </mxCell>
        <mxCell id="FgxfRrCGkQw39yHPGqpa-92" value="id" style="shape=partialRectangle;overflow=hidden;connectable=0;fillColor=none;top=0;left=0;bottom=0;right=0;align=left;spacingLeft=6;fontStyle=5;rounded=1;labelBackgroundColor=none;strokeColor=#028090;fontColor=#E4FDE1;sketch=1;curveFitting=1;jiggle=2;" vertex="1" parent="FgxfRrCGkQw39yHPGqpa-90">
          <mxGeometry x="30" width="220" height="30" as="geometry">
            <mxRectangle width="220" height="30" as="alternateBounds" />
          </mxGeometry>
        </mxCell>
        <mxCell id="FgxfRrCGkQw39yHPGqpa-93" value="" style="shape=partialRectangle;collapsible=0;dropTarget=0;pointerEvents=0;fillColor=none;points=[[0,0.5],[1,0.5]];portConstraint=eastwest;top=0;left=0;right=0;bottom=0;rounded=1;labelBackgroundColor=none;strokeColor=#028090;fontColor=#E4FDE1;sketch=1;curveFitting=1;jiggle=2;" vertex="1" parent="FgxfRrCGkQw39yHPGqpa-89">
          <mxGeometry y="60" width="250" height="30" as="geometry" />
        </mxCell>
        <mxCell id="FgxfRrCGkQw39yHPGqpa-94" value="FK" style="shape=partialRectangle;overflow=hidden;connectable=0;fillColor=none;top=0;left=0;bottom=0;right=0;rounded=1;labelBackgroundColor=none;strokeColor=#028090;fontColor=#E4FDE1;sketch=1;curveFitting=1;jiggle=2;" vertex="1" parent="FgxfRrCGkQw39yHPGqpa-93">
          <mxGeometry width="30" height="30" as="geometry">
            <mxRectangle width="30" height="30" as="alternateBounds" />
          </mxGeometry>
        </mxCell>
        <mxCell id="FgxfRrCGkQw39yHPGqpa-95" value="Channel" style="shape=partialRectangle;overflow=hidden;connectable=0;fillColor=none;top=0;left=0;bottom=0;right=0;align=left;spacingLeft=6;rounded=1;labelBackgroundColor=none;strokeColor=#028090;fontColor=#E4FDE1;sketch=1;curveFitting=1;jiggle=2;" vertex="1" parent="FgxfRrCGkQw39yHPGqpa-93">
          <mxGeometry x="30" width="220" height="30" as="geometry">
            <mxRectangle width="220" height="30" as="alternateBounds" />
          </mxGeometry>
        </mxCell>
        <mxCell id="FgxfRrCGkQw39yHPGqpa-96" style="shape=partialRectangle;collapsible=0;dropTarget=0;pointerEvents=0;fillColor=none;points=[[0,0.5],[1,0.5]];portConstraint=eastwest;top=0;left=0;right=0;bottom=0;rounded=1;labelBackgroundColor=none;strokeColor=#028090;fontColor=#E4FDE1;sketch=1;curveFitting=1;jiggle=2;" vertex="1" parent="FgxfRrCGkQw39yHPGqpa-89">
          <mxGeometry y="90" width="250" height="30" as="geometry" />
        </mxCell>
        <mxCell id="FgxfRrCGkQw39yHPGqpa-97" value="FK" style="shape=partialRectangle;overflow=hidden;connectable=0;fillColor=none;top=0;left=0;bottom=0;right=0;rounded=1;labelBackgroundColor=none;strokeColor=#028090;fontColor=#E4FDE1;sketch=1;curveFitting=1;jiggle=2;" vertex="1" parent="FgxfRrCGkQw39yHPGqpa-96">
          <mxGeometry width="30" height="30" as="geometry">
            <mxRectangle width="30" height="30" as="alternateBounds" />
          </mxGeometry>
        </mxCell>
        <mxCell id="FgxfRrCGkQw39yHPGqpa-98" value="user" style="shape=partialRectangle;overflow=hidden;connectable=0;fillColor=none;top=0;left=0;bottom=0;right=0;align=left;spacingLeft=6;rounded=1;labelBackgroundColor=none;strokeColor=#028090;fontColor=#E4FDE1;sketch=1;curveFitting=1;jiggle=2;" vertex="1" parent="FgxfRrCGkQw39yHPGqpa-96">
          <mxGeometry x="30" width="220" height="30" as="geometry">
            <mxRectangle width="220" height="30" as="alternateBounds" />
          </mxGeometry>
        </mxCell>
        <mxCell id="FgxfRrCGkQw39yHPGqpa-99" style="shape=partialRectangle;collapsible=0;dropTarget=0;pointerEvents=0;fillColor=none;points=[[0,0.5],[1,0.5]];portConstraint=eastwest;top=0;left=0;right=0;bottom=0;rounded=1;labelBackgroundColor=none;strokeColor=#028090;fontColor=#E4FDE1;sketch=1;curveFitting=1;jiggle=2;" vertex="1" parent="FgxfRrCGkQw39yHPGqpa-89">
          <mxGeometry y="120" width="250" height="30" as="geometry" />
        </mxCell>
        <mxCell id="FgxfRrCGkQw39yHPGqpa-100" style="shape=partialRectangle;overflow=hidden;connectable=0;fillColor=none;top=0;left=0;bottom=0;right=0;rounded=1;labelBackgroundColor=none;strokeColor=#028090;fontColor=#E4FDE1;sketch=1;curveFitting=1;jiggle=2;" vertex="1" parent="FgxfRrCGkQw39yHPGqpa-99">
          <mxGeometry width="30" height="30" as="geometry">
            <mxRectangle width="30" height="30" as="alternateBounds" />
          </mxGeometry>
        </mxCell>
        <mxCell id="FgxfRrCGkQw39yHPGqpa-101" value="creted_at" style="shape=partialRectangle;overflow=hidden;connectable=0;fillColor=none;top=0;left=0;bottom=0;right=0;align=left;spacingLeft=6;rounded=1;labelBackgroundColor=none;strokeColor=#028090;fontColor=#E4FDE1;sketch=1;curveFitting=1;jiggle=2;" vertex="1" parent="FgxfRrCGkQw39yHPGqpa-99">
          <mxGeometry x="30" width="220" height="30" as="geometry">
            <mxRectangle width="220" height="30" as="alternateBounds" />
          </mxGeometry>
        </mxCell>
        <mxCell id="FgxfRrCGkQw39yHPGqpa-102" value="Comment" style="shape=table;startSize=30;container=1;collapsible=1;childLayout=tableLayout;fixedRows=1;rowLines=0;fontStyle=1;align=center;resizeLast=1;rounded=1;labelBackgroundColor=none;fillColor=#F45B69;strokeColor=#028090;fontColor=#E4FDE1;sketch=1;curveFitting=1;jiggle=2;" vertex="1" parent="1">
          <mxGeometry x="1240" y="480" width="250" height="190" as="geometry" />
        </mxCell>
        <mxCell id="FgxfRrCGkQw39yHPGqpa-103" value="" style="shape=partialRectangle;collapsible=0;dropTarget=0;pointerEvents=0;fillColor=none;points=[[0,0.5],[1,0.5]];portConstraint=eastwest;top=0;left=0;right=0;bottom=1;rounded=1;labelBackgroundColor=none;strokeColor=#028090;fontColor=#E4FDE1;sketch=1;curveFitting=1;jiggle=2;" vertex="1" parent="FgxfRrCGkQw39yHPGqpa-102">
          <mxGeometry y="30" width="250" height="30" as="geometry" />
        </mxCell>
        <mxCell id="FgxfRrCGkQw39yHPGqpa-104" value="PK" style="shape=partialRectangle;overflow=hidden;connectable=0;fillColor=none;top=0;left=0;bottom=0;right=0;fontStyle=1;rounded=1;labelBackgroundColor=none;strokeColor=#028090;fontColor=#E4FDE1;sketch=1;curveFitting=1;jiggle=2;" vertex="1" parent="FgxfRrCGkQw39yHPGqpa-103">
          <mxGeometry width="30" height="30" as="geometry">
            <mxRectangle width="30" height="30" as="alternateBounds" />
          </mxGeometry>
        </mxCell>
        <mxCell id="FgxfRrCGkQw39yHPGqpa-105" value="id" style="shape=partialRectangle;overflow=hidden;connectable=0;fillColor=none;top=0;left=0;bottom=0;right=0;align=left;spacingLeft=6;fontStyle=5;rounded=1;labelBackgroundColor=none;strokeColor=#028090;fontColor=#E4FDE1;sketch=1;curveFitting=1;jiggle=2;" vertex="1" parent="FgxfRrCGkQw39yHPGqpa-103">
          <mxGeometry x="30" width="220" height="30" as="geometry">
            <mxRectangle width="220" height="30" as="alternateBounds" />
          </mxGeometry>
        </mxCell>
        <mxCell id="FgxfRrCGkQw39yHPGqpa-106" value="" style="shape=partialRectangle;collapsible=0;dropTarget=0;pointerEvents=0;fillColor=none;points=[[0,0.5],[1,0.5]];portConstraint=eastwest;top=0;left=0;right=0;bottom=0;rounded=1;labelBackgroundColor=none;strokeColor=#028090;fontColor=#E4FDE1;sketch=1;curveFitting=1;jiggle=2;" vertex="1" parent="FgxfRrCGkQw39yHPGqpa-102">
          <mxGeometry y="60" width="250" height="30" as="geometry" />
        </mxCell>
        <mxCell id="FgxfRrCGkQw39yHPGqpa-107" value="FK" style="shape=partialRectangle;overflow=hidden;connectable=0;fillColor=none;top=0;left=0;bottom=0;right=0;rounded=1;labelBackgroundColor=none;strokeColor=#028090;fontColor=#E4FDE1;sketch=1;curveFitting=1;jiggle=2;" vertex="1" parent="FgxfRrCGkQw39yHPGqpa-106">
          <mxGeometry width="30" height="30" as="geometry">
            <mxRectangle width="30" height="30" as="alternateBounds" />
          </mxGeometry>
        </mxCell>
        <mxCell id="FgxfRrCGkQw39yHPGqpa-108" value="Content_type" style="shape=partialRectangle;overflow=hidden;connectable=0;fillColor=none;top=0;left=0;bottom=0;right=0;align=left;spacingLeft=6;rounded=1;labelBackgroundColor=none;strokeColor=#028090;fontColor=#E4FDE1;sketch=1;curveFitting=1;jiggle=2;" vertex="1" parent="FgxfRrCGkQw39yHPGqpa-106">
          <mxGeometry x="30" width="220" height="30" as="geometry">
            <mxRectangle width="220" height="30" as="alternateBounds" />
          </mxGeometry>
        </mxCell>
        <mxCell id="FgxfRrCGkQw39yHPGqpa-109" style="shape=partialRectangle;collapsible=0;dropTarget=0;pointerEvents=0;fillColor=none;points=[[0,0.5],[1,0.5]];portConstraint=eastwest;top=0;left=0;right=0;bottom=0;rounded=1;labelBackgroundColor=none;strokeColor=#028090;fontColor=#E4FDE1;sketch=1;curveFitting=1;jiggle=2;" vertex="1" parent="FgxfRrCGkQw39yHPGqpa-102">
          <mxGeometry y="90" width="250" height="30" as="geometry" />
        </mxCell>
        <mxCell id="FgxfRrCGkQw39yHPGqpa-110" value="FK" style="shape=partialRectangle;overflow=hidden;connectable=0;fillColor=none;top=0;left=0;bottom=0;right=0;rounded=1;labelBackgroundColor=none;strokeColor=#028090;fontColor=#E4FDE1;sketch=1;curveFitting=1;jiggle=2;" vertex="1" parent="FgxfRrCGkQw39yHPGqpa-109">
          <mxGeometry width="30" height="30" as="geometry">
            <mxRectangle width="30" height="30" as="alternateBounds" />
          </mxGeometry>
        </mxCell>
        <mxCell id="FgxfRrCGkQw39yHPGqpa-111" value="user" style="shape=partialRectangle;overflow=hidden;connectable=0;fillColor=none;top=0;left=0;bottom=0;right=0;align=left;spacingLeft=6;rounded=1;labelBackgroundColor=none;strokeColor=#028090;fontColor=#E4FDE1;sketch=1;curveFitting=1;jiggle=2;" vertex="1" parent="FgxfRrCGkQw39yHPGqpa-109">
          <mxGeometry x="30" width="220" height="30" as="geometry">
            <mxRectangle width="220" height="30" as="alternateBounds" />
          </mxGeometry>
        </mxCell>
        <mxCell id="FgxfRrCGkQw39yHPGqpa-112" style="shape=partialRectangle;collapsible=0;dropTarget=0;pointerEvents=0;fillColor=none;points=[[0,0.5],[1,0.5]];portConstraint=eastwest;top=0;left=0;right=0;bottom=0;rounded=1;labelBackgroundColor=none;strokeColor=#028090;fontColor=#E4FDE1;sketch=1;curveFitting=1;jiggle=2;" vertex="1" parent="FgxfRrCGkQw39yHPGqpa-102">
          <mxGeometry y="120" width="250" height="30" as="geometry" />
        </mxCell>
        <mxCell id="FgxfRrCGkQw39yHPGqpa-113" style="shape=partialRectangle;overflow=hidden;connectable=0;fillColor=none;top=0;left=0;bottom=0;right=0;rounded=1;labelBackgroundColor=none;strokeColor=#028090;fontColor=#E4FDE1;sketch=1;curveFitting=1;jiggle=2;" vertex="1" parent="FgxfRrCGkQw39yHPGqpa-112">
          <mxGeometry width="30" height="30" as="geometry">
            <mxRectangle width="30" height="30" as="alternateBounds" />
          </mxGeometry>
        </mxCell>
        <mxCell id="FgxfRrCGkQw39yHPGqpa-114" value="content" style="shape=partialRectangle;overflow=hidden;connectable=0;fillColor=none;top=0;left=0;bottom=0;right=0;align=left;spacingLeft=6;rounded=1;labelBackgroundColor=none;strokeColor=#028090;fontColor=#E4FDE1;sketch=1;curveFitting=1;jiggle=2;" vertex="1" parent="FgxfRrCGkQw39yHPGqpa-112">
          <mxGeometry x="30" width="220" height="30" as="geometry">
            <mxRectangle width="220" height="30" as="alternateBounds" />
          </mxGeometry>
        </mxCell>
        <mxCell id="FgxfRrCGkQw39yHPGqpa-115" style="shape=partialRectangle;collapsible=0;dropTarget=0;pointerEvents=0;fillColor=none;points=[[0,0.5],[1,0.5]];portConstraint=eastwest;top=0;left=0;right=0;bottom=0;rounded=1;labelBackgroundColor=none;strokeColor=#028090;fontColor=#E4FDE1;sketch=1;curveFitting=1;jiggle=2;" vertex="1" parent="FgxfRrCGkQw39yHPGqpa-102">
          <mxGeometry y="150" width="250" height="30" as="geometry" />
        </mxCell>
        <mxCell id="FgxfRrCGkQw39yHPGqpa-116" style="shape=partialRectangle;overflow=hidden;connectable=0;fillColor=none;top=0;left=0;bottom=0;right=0;rounded=1;labelBackgroundColor=none;strokeColor=#028090;fontColor=#E4FDE1;sketch=1;curveFitting=1;jiggle=2;" vertex="1" parent="FgxfRrCGkQw39yHPGqpa-115">
          <mxGeometry width="30" height="30" as="geometry">
            <mxRectangle width="30" height="30" as="alternateBounds" />
          </mxGeometry>
        </mxCell>
        <mxCell id="FgxfRrCGkQw39yHPGqpa-117" value="created_at" style="shape=partialRectangle;overflow=hidden;connectable=0;fillColor=none;top=0;left=0;bottom=0;right=0;align=left;spacingLeft=6;rounded=1;labelBackgroundColor=none;strokeColor=#028090;fontColor=#E4FDE1;sketch=1;curveFitting=1;jiggle=2;" vertex="1" parent="FgxfRrCGkQw39yHPGqpa-115">
          <mxGeometry x="30" width="220" height="30" as="geometry">
            <mxRectangle width="220" height="30" as="alternateBounds" />
          </mxGeometry>
        </mxCell>
        <mxCell id="FgxfRrCGkQw39yHPGqpa-118" value="Like" style="shape=table;startSize=30;container=1;collapsible=1;childLayout=tableLayout;fixedRows=1;rowLines=0;fontStyle=1;align=center;resizeLast=1;rounded=1;labelBackgroundColor=none;fillColor=#F45B69;strokeColor=#028090;fontColor=#E4FDE1;sketch=1;curveFitting=1;jiggle=2;" vertex="1" parent="1">
          <mxGeometry x="1180" y="310" width="250" height="130" as="geometry" />
        </mxCell>
        <mxCell id="FgxfRrCGkQw39yHPGqpa-119" value="" style="shape=partialRectangle;collapsible=0;dropTarget=0;pointerEvents=0;fillColor=none;points=[[0,0.5],[1,0.5]];portConstraint=eastwest;top=0;left=0;right=0;bottom=1;rounded=1;labelBackgroundColor=none;strokeColor=#028090;fontColor=#E4FDE1;sketch=1;curveFitting=1;jiggle=2;" vertex="1" parent="FgxfRrCGkQw39yHPGqpa-118">
          <mxGeometry y="30" width="250" height="30" as="geometry" />
        </mxCell>
        <mxCell id="FgxfRrCGkQw39yHPGqpa-120" value="PK" style="shape=partialRectangle;overflow=hidden;connectable=0;fillColor=none;top=0;left=0;bottom=0;right=0;fontStyle=1;rounded=1;labelBackgroundColor=none;strokeColor=#028090;fontColor=#E4FDE1;sketch=1;curveFitting=1;jiggle=2;" vertex="1" parent="FgxfRrCGkQw39yHPGqpa-119">
          <mxGeometry width="30" height="30" as="geometry">
            <mxRectangle width="30" height="30" as="alternateBounds" />
          </mxGeometry>
        </mxCell>
        <mxCell id="FgxfRrCGkQw39yHPGqpa-121" value="id" style="shape=partialRectangle;overflow=hidden;connectable=0;fillColor=none;top=0;left=0;bottom=0;right=0;align=left;spacingLeft=6;fontStyle=5;rounded=1;labelBackgroundColor=none;strokeColor=#028090;fontColor=#E4FDE1;sketch=1;curveFitting=1;jiggle=2;" vertex="1" parent="FgxfRrCGkQw39yHPGqpa-119">
          <mxGeometry x="30" width="220" height="30" as="geometry">
            <mxRectangle width="220" height="30" as="alternateBounds" />
          </mxGeometry>
        </mxCell>
        <mxCell id="FgxfRrCGkQw39yHPGqpa-122" value="" style="shape=partialRectangle;collapsible=0;dropTarget=0;pointerEvents=0;fillColor=none;points=[[0,0.5],[1,0.5]];portConstraint=eastwest;top=0;left=0;right=0;bottom=0;rounded=1;labelBackgroundColor=none;strokeColor=#028090;fontColor=#E4FDE1;sketch=1;curveFitting=1;jiggle=2;" vertex="1" parent="FgxfRrCGkQw39yHPGqpa-118">
          <mxGeometry y="60" width="250" height="30" as="geometry" />
        </mxCell>
        <mxCell id="FgxfRrCGkQw39yHPGqpa-123" value="FK" style="shape=partialRectangle;overflow=hidden;connectable=0;fillColor=none;top=0;left=0;bottom=0;right=0;rounded=1;labelBackgroundColor=none;strokeColor=#028090;fontColor=#E4FDE1;sketch=1;curveFitting=1;jiggle=2;" vertex="1" parent="FgxfRrCGkQw39yHPGqpa-122">
          <mxGeometry width="30" height="30" as="geometry">
            <mxRectangle width="30" height="30" as="alternateBounds" />
          </mxGeometry>
        </mxCell>
        <mxCell id="FgxfRrCGkQw39yHPGqpa-124" value="Content_type" style="shape=partialRectangle;overflow=hidden;connectable=0;fillColor=none;top=0;left=0;bottom=0;right=0;align=left;spacingLeft=6;rounded=1;labelBackgroundColor=none;strokeColor=#028090;fontColor=#E4FDE1;sketch=1;curveFitting=1;jiggle=2;" vertex="1" parent="FgxfRrCGkQw39yHPGqpa-122">
          <mxGeometry x="30" width="220" height="30" as="geometry">
            <mxRectangle width="220" height="30" as="alternateBounds" />
          </mxGeometry>
        </mxCell>
        <mxCell id="FgxfRrCGkQw39yHPGqpa-125" style="shape=partialRectangle;collapsible=0;dropTarget=0;pointerEvents=0;fillColor=none;points=[[0,0.5],[1,0.5]];portConstraint=eastwest;top=0;left=0;right=0;bottom=0;rounded=1;labelBackgroundColor=none;strokeColor=#028090;fontColor=#E4FDE1;sketch=1;curveFitting=1;jiggle=2;" vertex="1" parent="FgxfRrCGkQw39yHPGqpa-118">
          <mxGeometry y="90" width="250" height="30" as="geometry" />
        </mxCell>
        <mxCell id="FgxfRrCGkQw39yHPGqpa-126" value="FK" style="shape=partialRectangle;overflow=hidden;connectable=0;fillColor=none;top=0;left=0;bottom=0;right=0;rounded=1;labelBackgroundColor=none;strokeColor=#028090;fontColor=#E4FDE1;sketch=1;curveFitting=1;jiggle=2;" vertex="1" parent="FgxfRrCGkQw39yHPGqpa-125">
          <mxGeometry width="30" height="30" as="geometry">
            <mxRectangle width="30" height="30" as="alternateBounds" />
          </mxGeometry>
        </mxCell>
        <mxCell id="FgxfRrCGkQw39yHPGqpa-127" value="user" style="shape=partialRectangle;overflow=hidden;connectable=0;fillColor=none;top=0;left=0;bottom=0;right=0;align=left;spacingLeft=6;rounded=1;labelBackgroundColor=none;strokeColor=#028090;fontColor=#E4FDE1;sketch=1;curveFitting=1;jiggle=2;" vertex="1" parent="FgxfRrCGkQw39yHPGqpa-125">
          <mxGeometry x="30" width="220" height="30" as="geometry">
            <mxRectangle width="220" height="30" as="alternateBounds" />
          </mxGeometry>
        </mxCell>
        <mxCell id="FgxfRrCGkQw39yHPGqpa-128" value="User" style="shape=table;startSize=40;container=1;collapsible=1;childLayout=tableLayout;fixedRows=1;rowLines=0;fontStyle=1;align=center;resizeLast=1;rounded=1;labelBackgroundColor=none;fillColor=#F45B69;strokeColor=#028090;fontColor=#E4FDE1;sketch=1;curveFitting=1;jiggle=2;" vertex="1" parent="1">
          <mxGeometry x="1610" y="60" width="250" height="330.0000000000002" as="geometry" />
        </mxCell>
        <mxCell id="FgxfRrCGkQw39yHPGqpa-129" value="" style="shape=partialRectangle;collapsible=0;dropTarget=0;pointerEvents=0;fillColor=none;points=[[0,0.5],[1,0.5]];portConstraint=eastwest;top=0;left=0;right=0;bottom=1;rounded=1;labelBackgroundColor=none;strokeColor=#028090;fontColor=#E4FDE1;sketch=1;curveFitting=1;jiggle=2;" vertex="1" parent="FgxfRrCGkQw39yHPGqpa-128">
          <mxGeometry y="40" width="250" height="30" as="geometry" />
        </mxCell>
        <mxCell id="FgxfRrCGkQw39yHPGqpa-130" value="PK" style="shape=partialRectangle;overflow=hidden;connectable=0;fillColor=none;top=0;left=0;bottom=0;right=0;fontStyle=1;rounded=1;labelBackgroundColor=none;strokeColor=#028090;fontColor=#E4FDE1;sketch=1;curveFitting=1;jiggle=2;" vertex="1" parent="FgxfRrCGkQw39yHPGqpa-129">
          <mxGeometry width="30" height="30" as="geometry">
            <mxRectangle width="30" height="30" as="alternateBounds" />
          </mxGeometry>
        </mxCell>
        <mxCell id="FgxfRrCGkQw39yHPGqpa-131" value="id" style="shape=partialRectangle;overflow=hidden;connectable=0;fillColor=none;top=0;left=0;bottom=0;right=0;align=left;spacingLeft=6;fontStyle=5;rounded=1;labelBackgroundColor=none;strokeColor=#028090;fontColor=#E4FDE1;sketch=1;curveFitting=1;jiggle=2;" vertex="1" parent="FgxfRrCGkQw39yHPGqpa-129">
          <mxGeometry x="30" width="220" height="30" as="geometry">
            <mxRectangle width="220" height="30" as="alternateBounds" />
          </mxGeometry>
        </mxCell>
        <mxCell id="FgxfRrCGkQw39yHPGqpa-132" value="" style="shape=partialRectangle;collapsible=0;dropTarget=0;pointerEvents=0;fillColor=none;points=[[0,0.5],[1,0.5]];portConstraint=eastwest;top=0;left=0;right=0;bottom=0;rounded=1;labelBackgroundColor=none;strokeColor=#028090;fontColor=#E4FDE1;sketch=1;curveFitting=1;jiggle=2;" vertex="1" parent="FgxfRrCGkQw39yHPGqpa-128">
          <mxGeometry y="70" width="250" height="30" as="geometry" />
        </mxCell>
        <mxCell id="FgxfRrCGkQw39yHPGqpa-133" value="" style="shape=partialRectangle;overflow=hidden;connectable=0;fillColor=none;top=0;left=0;bottom=0;right=0;rounded=1;labelBackgroundColor=none;strokeColor=#028090;fontColor=#E4FDE1;sketch=1;curveFitting=1;jiggle=2;" vertex="1" parent="FgxfRrCGkQw39yHPGqpa-132">
          <mxGeometry width="30" height="30" as="geometry">
            <mxRectangle width="30" height="30" as="alternateBounds" />
          </mxGeometry>
        </mxCell>
        <mxCell id="FgxfRrCGkQw39yHPGqpa-134" value="username" style="shape=partialRectangle;overflow=hidden;connectable=0;fillColor=none;top=0;left=0;bottom=0;right=0;align=left;spacingLeft=6;rounded=1;labelBackgroundColor=none;strokeColor=#028090;fontColor=#E4FDE1;sketch=1;curveFitting=1;jiggle=2;" vertex="1" parent="FgxfRrCGkQw39yHPGqpa-132">
          <mxGeometry x="30" width="220" height="30" as="geometry">
            <mxRectangle width="220" height="30" as="alternateBounds" />
          </mxGeometry>
        </mxCell>
        <mxCell id="FgxfRrCGkQw39yHPGqpa-135" value="" style="shape=partialRectangle;collapsible=0;dropTarget=0;pointerEvents=0;fillColor=none;points=[[0,0.5],[1,0.5]];portConstraint=eastwest;top=0;left=0;right=0;bottom=0;rounded=1;labelBackgroundColor=none;strokeColor=#028090;fontColor=#E4FDE1;sketch=1;curveFitting=1;jiggle=2;" vertex="1" parent="FgxfRrCGkQw39yHPGqpa-128">
          <mxGeometry y="100" width="250" height="30" as="geometry" />
        </mxCell>
        <mxCell id="FgxfRrCGkQw39yHPGqpa-136" value="" style="shape=partialRectangle;overflow=hidden;connectable=0;fillColor=none;top=0;left=0;bottom=0;right=0;rounded=1;labelBackgroundColor=none;strokeColor=#028090;fontColor=#E4FDE1;sketch=1;curveFitting=1;jiggle=2;" vertex="1" parent="FgxfRrCGkQw39yHPGqpa-135">
          <mxGeometry width="30" height="30" as="geometry">
            <mxRectangle width="30" height="30" as="alternateBounds" />
          </mxGeometry>
        </mxCell>
        <mxCell id="FgxfRrCGkQw39yHPGqpa-137" value="email" style="shape=partialRectangle;overflow=hidden;connectable=0;fillColor=none;top=0;left=0;bottom=0;right=0;align=left;spacingLeft=6;rounded=1;labelBackgroundColor=none;strokeColor=#028090;fontColor=#E4FDE1;sketch=1;curveFitting=1;jiggle=2;" vertex="1" parent="FgxfRrCGkQw39yHPGqpa-135">
          <mxGeometry x="30" width="220" height="30" as="geometry">
            <mxRectangle width="220" height="30" as="alternateBounds" />
          </mxGeometry>
        </mxCell>
        <mxCell id="FgxfRrCGkQw39yHPGqpa-138" style="shape=partialRectangle;collapsible=0;dropTarget=0;pointerEvents=0;fillColor=none;points=[[0,0.5],[1,0.5]];portConstraint=eastwest;top=0;left=0;right=0;bottom=0;rounded=1;labelBackgroundColor=none;strokeColor=#028090;fontColor=#E4FDE1;sketch=1;curveFitting=1;jiggle=2;" vertex="1" parent="FgxfRrCGkQw39yHPGqpa-128">
          <mxGeometry y="130" width="250" height="30" as="geometry" />
        </mxCell>
        <mxCell id="FgxfRrCGkQw39yHPGqpa-139" style="shape=partialRectangle;overflow=hidden;connectable=0;fillColor=none;top=0;left=0;bottom=0;right=0;rounded=1;labelBackgroundColor=none;strokeColor=#028090;fontColor=#E4FDE1;sketch=1;curveFitting=1;jiggle=2;" vertex="1" parent="FgxfRrCGkQw39yHPGqpa-138">
          <mxGeometry width="30" height="30" as="geometry">
            <mxRectangle width="30" height="30" as="alternateBounds" />
          </mxGeometry>
        </mxCell>
        <mxCell id="FgxfRrCGkQw39yHPGqpa-140" value="first_name" style="shape=partialRectangle;overflow=hidden;connectable=0;fillColor=none;top=0;left=0;bottom=0;right=0;align=left;spacingLeft=6;rounded=1;labelBackgroundColor=none;strokeColor=#028090;fontColor=#E4FDE1;sketch=1;curveFitting=1;jiggle=2;" vertex="1" parent="FgxfRrCGkQw39yHPGqpa-138">
          <mxGeometry x="30" width="220" height="30" as="geometry">
            <mxRectangle width="220" height="30" as="alternateBounds" />
          </mxGeometry>
        </mxCell>
        <mxCell id="FgxfRrCGkQw39yHPGqpa-141" style="shape=partialRectangle;collapsible=0;dropTarget=0;pointerEvents=0;fillColor=none;points=[[0,0.5],[1,0.5]];portConstraint=eastwest;top=0;left=0;right=0;bottom=0;rounded=1;labelBackgroundColor=none;strokeColor=#028090;fontColor=#E4FDE1;sketch=1;curveFitting=1;jiggle=2;" vertex="1" parent="FgxfRrCGkQw39yHPGqpa-128">
          <mxGeometry y="160" width="250" height="30" as="geometry" />
        </mxCell>
        <mxCell id="FgxfRrCGkQw39yHPGqpa-142" style="shape=partialRectangle;overflow=hidden;connectable=0;fillColor=none;top=0;left=0;bottom=0;right=0;rounded=1;labelBackgroundColor=none;strokeColor=#028090;fontColor=#E4FDE1;sketch=1;curveFitting=1;jiggle=2;" vertex="1" parent="FgxfRrCGkQw39yHPGqpa-141">
          <mxGeometry width="30" height="30" as="geometry">
            <mxRectangle width="30" height="30" as="alternateBounds" />
          </mxGeometry>
        </mxCell>
        <mxCell id="FgxfRrCGkQw39yHPGqpa-143" value="last_name" style="shape=partialRectangle;overflow=hidden;connectable=0;fillColor=none;top=0;left=0;bottom=0;right=0;align=left;spacingLeft=6;rounded=1;labelBackgroundColor=none;strokeColor=#028090;fontColor=#E4FDE1;sketch=1;curveFitting=1;jiggle=2;" vertex="1" parent="FgxfRrCGkQw39yHPGqpa-141">
          <mxGeometry x="30" width="220" height="30" as="geometry">
            <mxRectangle width="220" height="30" as="alternateBounds" />
          </mxGeometry>
        </mxCell>
        <mxCell id="FgxfRrCGkQw39yHPGqpa-144" style="shape=partialRectangle;collapsible=0;dropTarget=0;pointerEvents=0;fillColor=none;points=[[0,0.5],[1,0.5]];portConstraint=eastwest;top=0;left=0;right=0;bottom=0;rounded=1;labelBackgroundColor=none;strokeColor=#028090;fontColor=#E4FDE1;sketch=1;curveFitting=1;jiggle=2;" vertex="1" parent="FgxfRrCGkQw39yHPGqpa-128">
          <mxGeometry y="190" width="250" height="20" as="geometry" />
        </mxCell>
        <mxCell id="FgxfRrCGkQw39yHPGqpa-145" style="shape=partialRectangle;overflow=hidden;connectable=0;fillColor=none;top=0;left=0;bottom=0;right=0;rounded=1;labelBackgroundColor=none;strokeColor=#028090;fontColor=#E4FDE1;sketch=1;curveFitting=1;jiggle=2;" vertex="1" parent="FgxfRrCGkQw39yHPGqpa-144">
          <mxGeometry width="30" height="20" as="geometry">
            <mxRectangle width="30" height="20" as="alternateBounds" />
          </mxGeometry>
        </mxCell>
        <mxCell id="FgxfRrCGkQw39yHPGqpa-146" value="is_active" style="shape=partialRectangle;overflow=hidden;connectable=0;fillColor=none;top=0;left=0;bottom=0;right=0;align=left;spacingLeft=6;rounded=1;labelBackgroundColor=none;strokeColor=#028090;fontColor=#E4FDE1;sketch=1;curveFitting=1;jiggle=2;" vertex="1" parent="FgxfRrCGkQw39yHPGqpa-144">
          <mxGeometry x="30" width="220" height="20" as="geometry">
            <mxRectangle width="220" height="20" as="alternateBounds" />
          </mxGeometry>
        </mxCell>
        <mxCell id="FgxfRrCGkQw39yHPGqpa-147" style="shape=partialRectangle;collapsible=0;dropTarget=0;pointerEvents=0;fillColor=none;points=[[0,0.5],[1,0.5]];portConstraint=eastwest;top=0;left=0;right=0;bottom=0;rounded=1;labelBackgroundColor=none;strokeColor=#028090;fontColor=#E4FDE1;sketch=1;curveFitting=1;jiggle=2;" vertex="1" parent="FgxfRrCGkQw39yHPGqpa-128">
          <mxGeometry y="210" width="250" height="30" as="geometry" />
        </mxCell>
        <mxCell id="FgxfRrCGkQw39yHPGqpa-148" style="shape=partialRectangle;overflow=hidden;connectable=0;fillColor=none;top=0;left=0;bottom=0;right=0;rounded=1;labelBackgroundColor=none;strokeColor=#028090;fontColor=#E4FDE1;sketch=1;curveFitting=1;jiggle=2;" vertex="1" parent="FgxfRrCGkQw39yHPGqpa-147">
          <mxGeometry width="30" height="30" as="geometry">
            <mxRectangle width="30" height="30" as="alternateBounds" />
          </mxGeometry>
        </mxCell>
        <mxCell id="FgxfRrCGkQw39yHPGqpa-149" value="is_staff" style="shape=partialRectangle;overflow=hidden;connectable=0;fillColor=none;top=0;left=0;bottom=0;right=0;align=left;spacingLeft=6;rounded=1;labelBackgroundColor=none;strokeColor=#028090;fontColor=#E4FDE1;sketch=1;curveFitting=1;jiggle=2;" vertex="1" parent="FgxfRrCGkQw39yHPGqpa-147">
          <mxGeometry x="30" width="220" height="30" as="geometry">
            <mxRectangle width="220" height="30" as="alternateBounds" />
          </mxGeometry>
        </mxCell>
        <mxCell id="FgxfRrCGkQw39yHPGqpa-150" style="shape=partialRectangle;collapsible=0;dropTarget=0;pointerEvents=0;fillColor=none;points=[[0,0.5],[1,0.5]];portConstraint=eastwest;top=0;left=0;right=0;bottom=0;rounded=1;labelBackgroundColor=none;strokeColor=#028090;fontColor=#E4FDE1;sketch=1;curveFitting=1;jiggle=2;" vertex="1" parent="FgxfRrCGkQw39yHPGqpa-128">
          <mxGeometry y="240" width="250" height="30" as="geometry" />
        </mxCell>
        <mxCell id="FgxfRrCGkQw39yHPGqpa-151" style="shape=partialRectangle;overflow=hidden;connectable=0;fillColor=none;top=0;left=0;bottom=0;right=0;rounded=1;labelBackgroundColor=none;strokeColor=#028090;fontColor=#E4FDE1;sketch=1;curveFitting=1;jiggle=2;" vertex="1" parent="FgxfRrCGkQw39yHPGqpa-150">
          <mxGeometry width="30" height="30" as="geometry">
            <mxRectangle width="30" height="30" as="alternateBounds" />
          </mxGeometry>
        </mxCell>
        <mxCell id="FgxfRrCGkQw39yHPGqpa-152" value="is_superuser" style="shape=partialRectangle;overflow=hidden;connectable=0;fillColor=none;top=0;left=0;bottom=0;right=0;align=left;spacingLeft=6;rounded=1;labelBackgroundColor=none;strokeColor=#028090;fontColor=#E4FDE1;sketch=1;curveFitting=1;jiggle=2;" vertex="1" parent="FgxfRrCGkQw39yHPGqpa-150">
          <mxGeometry x="30" width="220" height="30" as="geometry">
            <mxRectangle width="220" height="30" as="alternateBounds" />
          </mxGeometry>
        </mxCell>
        <mxCell id="FgxfRrCGkQw39yHPGqpa-153" style="shape=partialRectangle;collapsible=0;dropTarget=0;pointerEvents=0;fillColor=none;points=[[0,0.5],[1,0.5]];portConstraint=eastwest;top=0;left=0;right=0;bottom=0;rounded=1;labelBackgroundColor=none;strokeColor=#028090;fontColor=#E4FDE1;sketch=1;curveFitting=1;jiggle=2;" vertex="1" parent="FgxfRrCGkQw39yHPGqpa-128">
          <mxGeometry y="270" width="250" height="30" as="geometry" />
        </mxCell>
        <mxCell id="FgxfRrCGkQw39yHPGqpa-154" style="shape=partialRectangle;overflow=hidden;connectable=0;fillColor=none;top=0;left=0;bottom=0;right=0;rounded=1;labelBackgroundColor=none;strokeColor=#028090;fontColor=#E4FDE1;sketch=1;curveFitting=1;jiggle=2;" vertex="1" parent="FgxfRrCGkQw39yHPGqpa-153">
          <mxGeometry width="30" height="30" as="geometry">
            <mxRectangle width="30" height="30" as="alternateBounds" />
          </mxGeometry>
        </mxCell>
        <mxCell id="FgxfRrCGkQw39yHPGqpa-155" value="date_joined" style="shape=partialRectangle;overflow=hidden;connectable=0;fillColor=none;top=0;left=0;bottom=0;right=0;align=left;spacingLeft=6;rounded=1;labelBackgroundColor=none;strokeColor=#028090;fontColor=#E4FDE1;sketch=1;curveFitting=1;jiggle=2;" vertex="1" parent="FgxfRrCGkQw39yHPGqpa-153">
          <mxGeometry x="30" width="220" height="30" as="geometry">
            <mxRectangle width="220" height="30" as="alternateBounds" />
          </mxGeometry>
        </mxCell>
        <mxCell id="FgxfRrCGkQw39yHPGqpa-156" style="shape=partialRectangle;collapsible=0;dropTarget=0;pointerEvents=0;fillColor=none;points=[[0,0.5],[1,0.5]];portConstraint=eastwest;top=0;left=0;right=0;bottom=0;rounded=1;labelBackgroundColor=none;strokeColor=#028090;fontColor=#E4FDE1;sketch=1;curveFitting=1;jiggle=2;" vertex="1" parent="FgxfRrCGkQw39yHPGqpa-128">
          <mxGeometry y="300" width="250" height="30" as="geometry" />
        </mxCell>
        <mxCell id="FgxfRrCGkQw39yHPGqpa-157" value="" style="shape=partialRectangle;overflow=hidden;connectable=0;fillColor=none;top=0;left=0;bottom=0;right=0;rounded=1;labelBackgroundColor=none;strokeColor=#028090;fontColor=#E4FDE1;sketch=1;curveFitting=1;jiggle=2;" vertex="1" parent="FgxfRrCGkQw39yHPGqpa-156">
          <mxGeometry width="30" height="30" as="geometry">
            <mxRectangle width="30" height="30" as="alternateBounds" />
          </mxGeometry>
        </mxCell>
        <mxCell id="FgxfRrCGkQw39yHPGqpa-158" value="last_modify" style="shape=partialRectangle;overflow=hidden;connectable=0;fillColor=none;top=0;left=0;bottom=0;right=0;align=left;spacingLeft=6;rounded=1;labelBackgroundColor=none;strokeColor=#028090;fontColor=#E4FDE1;sketch=1;curveFitting=1;jiggle=2;" vertex="1" parent="FgxfRrCGkQw39yHPGqpa-156">
          <mxGeometry x="30" width="220" height="30" as="geometry">
            <mxRectangle width="220" height="30" as="alternateBounds" />
          </mxGeometry>
        </mxCell>
        <mxCell id="FgxfRrCGkQw39yHPGqpa-159" style="edgeStyle=orthogonalEdgeStyle;rounded=1;orthogonalLoop=1;jettySize=auto;html=1;exitX=1;exitY=0.5;exitDx=0;exitDy=0;entryX=0;entryY=0.5;entryDx=0;entryDy=0;startArrow=ERzeroToMany;startFill=0;labelBackgroundColor=none;fontColor=default;strokeColor=#028090;sketch=1;curveFitting=1;jiggle=2;" edge="1" parent="1" source="FgxfRrCGkQw39yHPGqpa-125" target="FgxfRrCGkQw39yHPGqpa-129">
          <mxGeometry relative="1" as="geometry" />
        </mxCell>
        <mxCell id="FgxfRrCGkQw39yHPGqpa-160" value="Bookmark" style="shape=table;startSize=30;container=1;collapsible=1;childLayout=tableLayout;fixedRows=1;rowLines=0;fontStyle=1;align=center;resizeLast=1;rounded=1;labelBackgroundColor=none;fillColor=#F45B69;strokeColor=#028090;fontColor=#E4FDE1;sketch=1;curveFitting=1;jiggle=2;" vertex="1" parent="1">
          <mxGeometry x="1290" y="740" width="250" height="160" as="geometry" />
        </mxCell>
        <mxCell id="FgxfRrCGkQw39yHPGqpa-161" value="" style="shape=partialRectangle;collapsible=0;dropTarget=0;pointerEvents=0;fillColor=none;points=[[0,0.5],[1,0.5]];portConstraint=eastwest;top=0;left=0;right=0;bottom=1;rounded=1;labelBackgroundColor=none;strokeColor=#028090;fontColor=#E4FDE1;sketch=1;curveFitting=1;jiggle=2;" vertex="1" parent="FgxfRrCGkQw39yHPGqpa-160">
          <mxGeometry y="30" width="250" height="30" as="geometry" />
        </mxCell>
        <mxCell id="FgxfRrCGkQw39yHPGqpa-162" value="PK" style="shape=partialRectangle;overflow=hidden;connectable=0;fillColor=none;top=0;left=0;bottom=0;right=0;fontStyle=1;rounded=1;labelBackgroundColor=none;strokeColor=#028090;fontColor=#E4FDE1;sketch=1;curveFitting=1;jiggle=2;" vertex="1" parent="FgxfRrCGkQw39yHPGqpa-161">
          <mxGeometry width="30" height="30" as="geometry">
            <mxRectangle width="30" height="30" as="alternateBounds" />
          </mxGeometry>
        </mxCell>
        <mxCell id="FgxfRrCGkQw39yHPGqpa-163" value="id" style="shape=partialRectangle;overflow=hidden;connectable=0;fillColor=none;top=0;left=0;bottom=0;right=0;align=left;spacingLeft=6;fontStyle=5;rounded=1;labelBackgroundColor=none;strokeColor=#028090;fontColor=#E4FDE1;sketch=1;curveFitting=1;jiggle=2;" vertex="1" parent="FgxfRrCGkQw39yHPGqpa-161">
          <mxGeometry x="30" width="220" height="30" as="geometry">
            <mxRectangle width="220" height="30" as="alternateBounds" />
          </mxGeometry>
        </mxCell>
        <mxCell id="FgxfRrCGkQw39yHPGqpa-164" value="" style="shape=partialRectangle;collapsible=0;dropTarget=0;pointerEvents=0;fillColor=none;points=[[0,0.5],[1,0.5]];portConstraint=eastwest;top=0;left=0;right=0;bottom=0;rounded=1;labelBackgroundColor=none;strokeColor=#028090;fontColor=#E4FDE1;sketch=1;curveFitting=1;jiggle=2;" vertex="1" parent="FgxfRrCGkQw39yHPGqpa-160">
          <mxGeometry y="60" width="250" height="30" as="geometry" />
        </mxCell>
        <mxCell id="FgxfRrCGkQw39yHPGqpa-165" value="FK" style="shape=partialRectangle;overflow=hidden;connectable=0;fillColor=none;top=0;left=0;bottom=0;right=0;rounded=1;labelBackgroundColor=none;strokeColor=#028090;fontColor=#E4FDE1;sketch=1;curveFitting=1;jiggle=2;" vertex="1" parent="FgxfRrCGkQw39yHPGqpa-164">
          <mxGeometry width="30" height="30" as="geometry">
            <mxRectangle width="30" height="30" as="alternateBounds" />
          </mxGeometry>
        </mxCell>
        <mxCell id="FgxfRrCGkQw39yHPGqpa-166" value="Content_type" style="shape=partialRectangle;overflow=hidden;connectable=0;fillColor=none;top=0;left=0;bottom=0;right=0;align=left;spacingLeft=6;rounded=1;labelBackgroundColor=none;strokeColor=#028090;fontColor=#E4FDE1;sketch=1;curveFitting=1;jiggle=2;" vertex="1" parent="FgxfRrCGkQw39yHPGqpa-164">
          <mxGeometry x="30" width="220" height="30" as="geometry">
            <mxRectangle width="220" height="30" as="alternateBounds" />
          </mxGeometry>
        </mxCell>
        <mxCell id="FgxfRrCGkQw39yHPGqpa-167" style="shape=partialRectangle;collapsible=0;dropTarget=0;pointerEvents=0;fillColor=none;points=[[0,0.5],[1,0.5]];portConstraint=eastwest;top=0;left=0;right=0;bottom=0;rounded=1;labelBackgroundColor=none;strokeColor=#028090;fontColor=#E4FDE1;sketch=1;curveFitting=1;jiggle=2;" vertex="1" parent="FgxfRrCGkQw39yHPGqpa-160">
          <mxGeometry y="90" width="250" height="30" as="geometry" />
        </mxCell>
        <mxCell id="FgxfRrCGkQw39yHPGqpa-168" value="FK" style="shape=partialRectangle;overflow=hidden;connectable=0;fillColor=none;top=0;left=0;bottom=0;right=0;rounded=1;labelBackgroundColor=none;strokeColor=#028090;fontColor=#E4FDE1;sketch=1;curveFitting=1;jiggle=2;" vertex="1" parent="FgxfRrCGkQw39yHPGqpa-167">
          <mxGeometry width="30" height="30" as="geometry">
            <mxRectangle width="30" height="30" as="alternateBounds" />
          </mxGeometry>
        </mxCell>
        <mxCell id="FgxfRrCGkQw39yHPGqpa-169" value="user" style="shape=partialRectangle;overflow=hidden;connectable=0;fillColor=none;top=0;left=0;bottom=0;right=0;align=left;spacingLeft=6;rounded=1;labelBackgroundColor=none;strokeColor=#028090;fontColor=#E4FDE1;sketch=1;curveFitting=1;jiggle=2;" vertex="1" parent="FgxfRrCGkQw39yHPGqpa-167">
          <mxGeometry x="30" width="220" height="30" as="geometry">
            <mxRectangle width="220" height="30" as="alternateBounds" />
          </mxGeometry>
        </mxCell>
        <mxCell id="FgxfRrCGkQw39yHPGqpa-170" style="shape=partialRectangle;collapsible=0;dropTarget=0;pointerEvents=0;fillColor=none;points=[[0,0.5],[1,0.5]];portConstraint=eastwest;top=0;left=0;right=0;bottom=0;rounded=1;labelBackgroundColor=none;strokeColor=#028090;fontColor=#E4FDE1;sketch=1;curveFitting=1;jiggle=2;" vertex="1" parent="FgxfRrCGkQw39yHPGqpa-160">
          <mxGeometry y="120" width="250" height="30" as="geometry" />
        </mxCell>
        <mxCell id="FgxfRrCGkQw39yHPGqpa-171" style="shape=partialRectangle;overflow=hidden;connectable=0;fillColor=none;top=0;left=0;bottom=0;right=0;rounded=1;labelBackgroundColor=none;strokeColor=#028090;fontColor=#E4FDE1;sketch=1;curveFitting=1;jiggle=2;" vertex="1" parent="FgxfRrCGkQw39yHPGqpa-170">
          <mxGeometry width="30" height="30" as="geometry">
            <mxRectangle width="30" height="30" as="alternateBounds" />
          </mxGeometry>
        </mxCell>
        <mxCell id="FgxfRrCGkQw39yHPGqpa-172" value="created_at" style="shape=partialRectangle;overflow=hidden;connectable=0;fillColor=none;top=0;left=0;bottom=0;right=0;align=left;spacingLeft=6;rounded=1;labelBackgroundColor=none;strokeColor=#028090;fontColor=#E4FDE1;sketch=1;curveFitting=1;jiggle=2;" vertex="1" parent="FgxfRrCGkQw39yHPGqpa-170">
          <mxGeometry x="30" width="220" height="30" as="geometry">
            <mxRectangle width="220" height="30" as="alternateBounds" />
          </mxGeometry>
        </mxCell>
        <mxCell id="FgxfRrCGkQw39yHPGqpa-173" style="edgeStyle=orthogonalEdgeStyle;rounded=1;orthogonalLoop=1;jettySize=auto;html=1;exitX=1;exitY=0.5;exitDx=0;exitDy=0;entryX=0;entryY=0.5;entryDx=0;entryDy=0;startArrow=ERzeroToMany;startFill=0;endArrow=ERone;endFill=0;labelBackgroundColor=none;fontColor=default;strokeColor=#028090;sketch=1;curveFitting=1;jiggle=2;" edge="1" parent="1" source="FgxfRrCGkQw39yHPGqpa-96" target="FgxfRrCGkQw39yHPGqpa-129">
          <mxGeometry relative="1" as="geometry" />
        </mxCell>
        <mxCell id="FgxfRrCGkQw39yHPGqpa-174" style="edgeStyle=orthogonalEdgeStyle;rounded=1;orthogonalLoop=1;jettySize=auto;html=1;exitX=1;exitY=0.5;exitDx=0;exitDy=0;entryX=0;entryY=0.5;entryDx=0;entryDy=0;endArrow=ERone;endFill=0;startArrow=ERzeroToMany;startFill=0;labelBackgroundColor=none;fontColor=default;strokeColor=#028090;sketch=1;curveFitting=1;jiggle=2;" edge="1" parent="1" source="FgxfRrCGkQw39yHPGqpa-109" target="FgxfRrCGkQw39yHPGqpa-129">
          <mxGeometry relative="1" as="geometry" />
        </mxCell>
        <mxCell id="FgxfRrCGkQw39yHPGqpa-175" style="edgeStyle=orthogonalEdgeStyle;rounded=1;orthogonalLoop=1;jettySize=auto;html=1;exitX=1;exitY=0.5;exitDx=0;exitDy=0;entryX=0;entryY=0.5;entryDx=0;entryDy=0;endArrow=ERone;endFill=0;startArrow=ERzeroToMany;startFill=0;labelBackgroundColor=none;fontColor=default;strokeColor=#028090;sketch=1;curveFitting=1;jiggle=2;" edge="1" parent="1" source="FgxfRrCGkQw39yHPGqpa-167" target="FgxfRrCGkQw39yHPGqpa-129">
          <mxGeometry relative="1" as="geometry" />
        </mxCell>
        <mxCell id="FgxfRrCGkQw39yHPGqpa-176" style="edgeStyle=orthogonalEdgeStyle;rounded=1;orthogonalLoop=1;jettySize=auto;html=1;exitX=0;exitY=0.5;exitDx=0;exitDy=0;entryX=1;entryY=0.5;entryDx=0;entryDy=0;startArrow=ERoneToMany;startFill=0;endArrow=ERone;endFill=0;labelBackgroundColor=none;fontColor=default;strokeColor=#028090;sketch=1;curveFitting=1;jiggle=2;" edge="1" parent="1" source="FgxfRrCGkQw39yHPGqpa-93" target="FgxfRrCGkQw39yHPGqpa-4">
          <mxGeometry relative="1" as="geometry" />
        </mxCell>
        <mxCell id="FgxfRrCGkQw39yHPGqpa-178" value="News" style="shape=table;startSize=30;container=1;collapsible=1;childLayout=tableLayout;fixedRows=1;rowLines=0;fontStyle=1;align=center;resizeLast=1;rounded=1;labelBackgroundColor=none;fillColor=#F45B69;strokeColor=#028090;fontColor=#E4FDE1;sketch=1;curveFitting=1;jiggle=2;" vertex="1" parent="1">
          <mxGeometry x="730" y="530" width="250" height="137.8055903116864" as="geometry" />
        </mxCell>
        <mxCell id="FgxfRrCGkQw39yHPGqpa-179" value="" style="shape=partialRectangle;collapsible=0;dropTarget=0;pointerEvents=0;fillColor=none;points=[[0,0.5],[1,0.5]];portConstraint=eastwest;top=0;left=0;right=0;bottom=1;rounded=1;labelBackgroundColor=none;strokeColor=#028090;fontColor=#E4FDE1;sketch=1;curveFitting=1;jiggle=2;" vertex="1" parent="FgxfRrCGkQw39yHPGqpa-178">
          <mxGeometry y="30" width="250" height="30" as="geometry" />
        </mxCell>
        <mxCell id="FgxfRrCGkQw39yHPGqpa-180" value="PK" style="shape=partialRectangle;overflow=hidden;connectable=0;fillColor=none;top=0;left=0;bottom=0;right=0;fontStyle=1;rounded=1;labelBackgroundColor=none;strokeColor=#028090;fontColor=#E4FDE1;sketch=1;curveFitting=1;jiggle=2;" vertex="1" parent="FgxfRrCGkQw39yHPGqpa-179">
          <mxGeometry width="30" height="30" as="geometry">
            <mxRectangle width="30" height="30" as="alternateBounds" />
          </mxGeometry>
        </mxCell>
        <mxCell id="FgxfRrCGkQw39yHPGqpa-181" value="id" style="shape=partialRectangle;overflow=hidden;connectable=0;fillColor=none;top=0;left=0;bottom=0;right=0;align=left;spacingLeft=6;fontStyle=5;rounded=1;labelBackgroundColor=none;strokeColor=#028090;fontColor=#E4FDE1;sketch=1;curveFitting=1;jiggle=2;" vertex="1" parent="FgxfRrCGkQw39yHPGqpa-179">
          <mxGeometry x="30" width="220" height="30" as="geometry">
            <mxRectangle width="220" height="30" as="alternateBounds" />
          </mxGeometry>
        </mxCell>
        <mxCell id="FgxfRrCGkQw39yHPGqpa-182" style="shape=partialRectangle;collapsible=0;dropTarget=0;pointerEvents=0;fillColor=none;points=[[0,0.5],[1,0.5]];portConstraint=eastwest;top=0;left=0;right=0;bottom=0;rounded=1;labelBackgroundColor=none;strokeColor=#028090;fontColor=#E4FDE1;sketch=1;curveFitting=1;jiggle=2;" vertex="1" parent="FgxfRrCGkQw39yHPGqpa-178">
          <mxGeometry y="60" width="250" height="30" as="geometry" />
        </mxCell>
        <mxCell id="FgxfRrCGkQw39yHPGqpa-183" style="shape=partialRectangle;overflow=hidden;connectable=0;fillColor=none;top=0;left=0;bottom=0;right=0;rounded=1;labelBackgroundColor=none;strokeColor=#028090;fontColor=#E4FDE1;sketch=1;curveFitting=1;jiggle=2;" vertex="1" parent="FgxfRrCGkQw39yHPGqpa-182">
          <mxGeometry width="30" height="30" as="geometry">
            <mxRectangle width="30" height="30" as="alternateBounds" />
          </mxGeometry>
        </mxCell>
        <mxCell id="FgxfRrCGkQw39yHPGqpa-184" value="link" style="shape=partialRectangle;overflow=hidden;connectable=0;fillColor=none;top=0;left=0;bottom=0;right=0;align=left;spacingLeft=6;rounded=1;labelBackgroundColor=none;strokeColor=#028090;fontColor=#E4FDE1;sketch=1;curveFitting=1;jiggle=2;" vertex="1" parent="FgxfRrCGkQw39yHPGqpa-182">
          <mxGeometry x="30" width="220" height="30" as="geometry">
            <mxRectangle width="220" height="30" as="alternateBounds" />
          </mxGeometry>
        </mxCell>
        <mxCell id="FgxfRrCGkQw39yHPGqpa-185" style="shape=partialRectangle;collapsible=0;dropTarget=0;pointerEvents=0;fillColor=none;points=[[0,0.5],[1,0.5]];portConstraint=eastwest;top=0;left=0;right=0;bottom=0;rounded=1;labelBackgroundColor=none;strokeColor=#028090;fontColor=#E4FDE1;sketch=1;curveFitting=1;jiggle=2;" vertex="1" parent="FgxfRrCGkQw39yHPGqpa-178">
          <mxGeometry y="90" width="250" height="38" as="geometry" />
        </mxCell>
        <mxCell id="FgxfRrCGkQw39yHPGqpa-186" style="shape=partialRectangle;overflow=hidden;connectable=0;fillColor=none;top=0;left=0;bottom=0;right=0;rounded=1;labelBackgroundColor=none;strokeColor=#028090;fontColor=#E4FDE1;sketch=1;curveFitting=1;jiggle=2;" vertex="1" parent="FgxfRrCGkQw39yHPGqpa-185">
          <mxGeometry width="30" height="38" as="geometry">
            <mxRectangle width="30" height="38" as="alternateBounds" />
          </mxGeometry>
        </mxCell>
        <mxCell id="FgxfRrCGkQw39yHPGqpa-187" value="source" style="shape=partialRectangle;overflow=hidden;connectable=0;fillColor=none;top=0;left=0;bottom=0;right=0;align=left;spacingLeft=6;rounded=1;labelBackgroundColor=none;strokeColor=#028090;fontColor=#E4FDE1;sketch=1;curveFitting=1;jiggle=2;" vertex="1" parent="FgxfRrCGkQw39yHPGqpa-185">
          <mxGeometry x="30" width="220" height="38" as="geometry">
            <mxRectangle width="220" height="38" as="alternateBounds" />
          </mxGeometry>
        </mxCell>
        <mxCell id="FgxfRrCGkQw39yHPGqpa-188" style="edgeStyle=orthogonalEdgeStyle;rounded=1;orthogonalLoop=1;jettySize=auto;html=1;exitX=1;exitY=0.5;exitDx=0;exitDy=0;entryX=1;entryY=0.5;entryDx=0;entryDy=0;endArrow=ERone;endFill=0;startArrow=ERmany;startFill=0;labelBackgroundColor=none;fontColor=default;strokeColor=#028090;sketch=1;curveFitting=1;jiggle=2;" edge="1" parent="1" source="FgxfRrCGkQw39yHPGqpa-39" target="FgxfRrCGkQw39yHPGqpa-4">
          <mxGeometry relative="1" as="geometry">
            <Array as="points">
              <mxPoint x="627" y="500" />
              <mxPoint x="730" y="500" />
              <mxPoint x="730" y="400" />
              <mxPoint x="1020" y="400" />
              <mxPoint x="1020" y="45" />
            </Array>
            <mxPoint x="700" y="545" as="sourcePoint" />
          </mxGeometry>
        </mxCell>
        <mxCell id="FgxfRrCGkQw39yHPGqpa-189" style="edgeStyle=orthogonalEdgeStyle;rounded=1;orthogonalLoop=1;jettySize=auto;html=1;exitX=1;exitY=0.5;exitDx=0;exitDy=0;entryX=1;entryY=0.5;entryDx=0;entryDy=0;endArrow=ERone;endFill=0;startArrow=ERmany;startFill=0;labelBackgroundColor=none;fontColor=default;strokeColor=#028090;sketch=1;curveFitting=1;jiggle=2;" edge="1" parent="1" target="FgxfRrCGkQw39yHPGqpa-4" source="FgxfRrCGkQw39yHPGqpa-179">
          <mxGeometry relative="1" as="geometry">
            <mxPoint x="1000" y="545" as="sourcePoint" />
          </mxGeometry>
        </mxCell>
        <mxCell id="FgxfRrCGkQw39yHPGqpa-190" value="Content_type" style="shape=table;startSize=30;container=1;collapsible=1;childLayout=tableLayout;fixedRows=1;rowLines=0;fontStyle=1;align=center;resizeLast=1;rounded=1;labelBackgroundColor=none;fillColor=#F45B69;strokeColor=#028090;fontColor=#E4FDE1;sketch=1;curveFitting=1;jiggle=2;" vertex="1" parent="1">
          <mxGeometry x="650" y="860" width="250" height="160" as="geometry" />
        </mxCell>
        <mxCell id="FgxfRrCGkQw39yHPGqpa-191" value="" style="shape=partialRectangle;collapsible=0;dropTarget=0;pointerEvents=0;fillColor=none;points=[[0,0.5],[1,0.5]];portConstraint=eastwest;top=0;left=0;right=0;bottom=1;rounded=1;labelBackgroundColor=none;strokeColor=#028090;fontColor=#E4FDE1;sketch=1;curveFitting=1;jiggle=2;" vertex="1" parent="FgxfRrCGkQw39yHPGqpa-190">
          <mxGeometry y="30" width="250" height="30" as="geometry" />
        </mxCell>
        <mxCell id="FgxfRrCGkQw39yHPGqpa-192" value="PK" style="shape=partialRectangle;overflow=hidden;connectable=0;fillColor=none;top=0;left=0;bottom=0;right=0;fontStyle=1;rounded=1;labelBackgroundColor=none;strokeColor=#028090;fontColor=#E4FDE1;sketch=1;curveFitting=1;jiggle=2;" vertex="1" parent="FgxfRrCGkQw39yHPGqpa-191">
          <mxGeometry width="30" height="30" as="geometry">
            <mxRectangle width="30" height="30" as="alternateBounds" />
          </mxGeometry>
        </mxCell>
        <mxCell id="FgxfRrCGkQw39yHPGqpa-193" value="id" style="shape=partialRectangle;overflow=hidden;connectable=0;fillColor=none;top=0;left=0;bottom=0;right=0;align=left;spacingLeft=6;fontStyle=5;rounded=1;labelBackgroundColor=none;strokeColor=#028090;fontColor=#E4FDE1;sketch=1;curveFitting=1;jiggle=2;" vertex="1" parent="FgxfRrCGkQw39yHPGqpa-191">
          <mxGeometry x="30" width="220" height="30" as="geometry">
            <mxRectangle width="220" height="30" as="alternateBounds" />
          </mxGeometry>
        </mxCell>
        <mxCell id="FgxfRrCGkQw39yHPGqpa-194" value="" style="shape=partialRectangle;collapsible=0;dropTarget=0;pointerEvents=0;fillColor=none;points=[[0,0.5],[1,0.5]];portConstraint=eastwest;top=0;left=0;right=0;bottom=0;rounded=1;labelBackgroundColor=none;strokeColor=#028090;fontColor=#E4FDE1;sketch=1;curveFitting=1;jiggle=2;" vertex="1" parent="FgxfRrCGkQw39yHPGqpa-190">
          <mxGeometry y="60" width="250" height="30" as="geometry" />
        </mxCell>
        <mxCell id="FgxfRrCGkQw39yHPGqpa-195" value="FK" style="shape=partialRectangle;overflow=hidden;connectable=0;fillColor=none;top=0;left=0;bottom=0;right=0;rounded=1;labelBackgroundColor=none;strokeColor=#028090;fontColor=#E4FDE1;sketch=1;curveFitting=1;jiggle=2;" vertex="1" parent="FgxfRrCGkQw39yHPGqpa-194">
          <mxGeometry width="30" height="30" as="geometry">
            <mxRectangle width="30" height="30" as="alternateBounds" />
          </mxGeometry>
        </mxCell>
        <mxCell id="FgxfRrCGkQw39yHPGqpa-196" value="app_label" style="shape=partialRectangle;overflow=hidden;connectable=0;fillColor=none;top=0;left=0;bottom=0;right=0;align=left;spacingLeft=6;rounded=1;labelBackgroundColor=none;strokeColor=#028090;fontColor=#E4FDE1;sketch=1;curveFitting=1;jiggle=2;" vertex="1" parent="FgxfRrCGkQw39yHPGqpa-194">
          <mxGeometry x="30" width="220" height="30" as="geometry">
            <mxRectangle width="220" height="30" as="alternateBounds" />
          </mxGeometry>
        </mxCell>
        <mxCell id="FgxfRrCGkQw39yHPGqpa-197" style="shape=partialRectangle;collapsible=0;dropTarget=0;pointerEvents=0;fillColor=none;points=[[0,0.5],[1,0.5]];portConstraint=eastwest;top=0;left=0;right=0;bottom=0;rounded=1;labelBackgroundColor=none;strokeColor=#028090;fontColor=#E4FDE1;sketch=1;curveFitting=1;jiggle=2;" vertex="1" parent="FgxfRrCGkQw39yHPGqpa-190">
          <mxGeometry y="90" width="250" height="30" as="geometry" />
        </mxCell>
        <mxCell id="FgxfRrCGkQw39yHPGqpa-198" value="FK" style="shape=partialRectangle;overflow=hidden;connectable=0;fillColor=none;top=0;left=0;bottom=0;right=0;rounded=1;labelBackgroundColor=none;strokeColor=#028090;fontColor=#E4FDE1;sketch=1;curveFitting=1;jiggle=2;" vertex="1" parent="FgxfRrCGkQw39yHPGqpa-197">
          <mxGeometry width="30" height="30" as="geometry">
            <mxRectangle width="30" height="30" as="alternateBounds" />
          </mxGeometry>
        </mxCell>
        <mxCell id="FgxfRrCGkQw39yHPGqpa-199" value="model" style="shape=partialRectangle;overflow=hidden;connectable=0;fillColor=none;top=0;left=0;bottom=0;right=0;align=left;spacingLeft=6;rounded=1;labelBackgroundColor=none;strokeColor=#028090;fontColor=#E4FDE1;sketch=1;curveFitting=1;jiggle=2;" vertex="1" parent="FgxfRrCGkQw39yHPGqpa-197">
          <mxGeometry x="30" width="220" height="30" as="geometry">
            <mxRectangle width="220" height="30" as="alternateBounds" />
          </mxGeometry>
        </mxCell>
        <mxCell id="FgxfRrCGkQw39yHPGqpa-200" style="shape=partialRectangle;collapsible=0;dropTarget=0;pointerEvents=0;fillColor=none;points=[[0,0.5],[1,0.5]];portConstraint=eastwest;top=0;left=0;right=0;bottom=0;rounded=1;labelBackgroundColor=none;strokeColor=#028090;fontColor=#E4FDE1;sketch=1;curveFitting=1;jiggle=2;" vertex="1" parent="FgxfRrCGkQw39yHPGqpa-190">
          <mxGeometry y="120" width="250" height="30" as="geometry" />
        </mxCell>
        <mxCell id="FgxfRrCGkQw39yHPGqpa-201" style="shape=partialRectangle;overflow=hidden;connectable=0;fillColor=none;top=0;left=0;bottom=0;right=0;rounded=1;labelBackgroundColor=none;strokeColor=#028090;fontColor=#E4FDE1;sketch=1;curveFitting=1;jiggle=2;" vertex="1" parent="FgxfRrCGkQw39yHPGqpa-200">
          <mxGeometry width="30" height="30" as="geometry">
            <mxRectangle width="30" height="30" as="alternateBounds" />
          </mxGeometry>
        </mxCell>
        <mxCell id="FgxfRrCGkQw39yHPGqpa-202" value="" style="shape=partialRectangle;overflow=hidden;connectable=0;fillColor=none;top=0;left=0;bottom=0;right=0;align=left;spacingLeft=6;rounded=1;labelBackgroundColor=none;strokeColor=#028090;fontColor=#E4FDE1;sketch=1;curveFitting=1;jiggle=2;" vertex="1" parent="FgxfRrCGkQw39yHPGqpa-200">
          <mxGeometry x="30" width="220" height="30" as="geometry">
            <mxRectangle width="220" height="30" as="alternateBounds" />
          </mxGeometry>
        </mxCell>
        <mxCell id="FgxfRrCGkQw39yHPGqpa-203" style="edgeStyle=orthogonalEdgeStyle;rounded=1;orthogonalLoop=1;jettySize=auto;html=1;entryX=0;entryY=0.5;entryDx=0;entryDy=0;endArrow=ERone;endFill=0;startArrow=ERmany;startFill=0;labelBackgroundColor=none;fontColor=default;strokeColor=#028090;sketch=1;curveFitting=1;jiggle=2;" edge="1" parent="1" source="FgxfRrCGkQw39yHPGqpa-197" target="FgxfRrCGkQw39yHPGqpa-164">
          <mxGeometry relative="1" as="geometry">
            <mxPoint x="1123" y="876" as="sourcePoint" />
            <mxPoint x="1223" y="306" as="targetPoint" />
          </mxGeometry>
        </mxCell>
        <mxCell id="FgxfRrCGkQw39yHPGqpa-204" style="edgeStyle=orthogonalEdgeStyle;rounded=1;orthogonalLoop=1;jettySize=auto;html=1;entryX=0;entryY=0.5;entryDx=0;entryDy=0;strokeColor=#028090;exitX=0;exitY=0.5;exitDx=0;exitDy=0;endArrow=ERone;endFill=0;startArrow=ERmany;startFill=0;sketch=1;curveFitting=1;jiggle=2;labelBackgroundColor=none;fontColor=default;" edge="1" parent="1" source="FgxfRrCGkQw39yHPGqpa-197" target="FgxfRrCGkQw39yHPGqpa-39">
          <mxGeometry relative="1" as="geometry">
            <mxPoint x="548.9411692899816" y="897.4118077895221" as="targetPoint" />
          </mxGeometry>
        </mxCell>
        <mxCell id="FgxfRrCGkQw39yHPGqpa-205" style="edgeStyle=orthogonalEdgeStyle;rounded=1;orthogonalLoop=1;jettySize=auto;html=1;exitX=0;exitY=0.5;exitDx=0;exitDy=0;entryX=0;entryY=0.5;entryDx=0;entryDy=0;strokeColor=#028090;sketch=1;curveFitting=1;jiggle=2;labelBackgroundColor=none;fontColor=default;" edge="1" parent="1" source="FgxfRrCGkQw39yHPGqpa-191" target="FgxfRrCGkQw39yHPGqpa-179">
          <mxGeometry relative="1" as="geometry" />
        </mxCell>
        <mxCell id="FgxfRrCGkQw39yHPGqpa-206" style="edgeStyle=orthogonalEdgeStyle;rounded=1;orthogonalLoop=1;jettySize=auto;html=1;exitX=1;exitY=0.5;exitDx=0;exitDy=0;strokeColor=#028090;endArrow=baseDash;endFill=0;startArrow=ERmany;startFill=0;sketch=1;curveFitting=1;jiggle=2;labelBackgroundColor=none;fontColor=default;" edge="1" parent="1" source="FgxfRrCGkQw39yHPGqpa-197" target="FgxfRrCGkQw39yHPGqpa-106">
          <mxGeometry relative="1" as="geometry" />
        </mxCell>
        <mxCell id="FgxfRrCGkQw39yHPGqpa-207" style="edgeStyle=orthogonalEdgeStyle;rounded=1;orthogonalLoop=1;jettySize=auto;html=1;strokeColor=#028090;endArrow=ERone;endFill=0;startArrow=ERmany;startFill=0;sketch=1;curveFitting=1;jiggle=2;labelBackgroundColor=none;fontColor=default;" edge="1" parent="1" source="FgxfRrCGkQw39yHPGqpa-197" target="FgxfRrCGkQw39yHPGqpa-122">
          <mxGeometry relative="1" as="geometry">
            <mxPoint x="1087" y="875" as="sourcePoint" />
          </mxGeometry>
        </mxCell>
      </root>
    </mxGraphModel>
  </diagram>
</mxfile>
